<svg width="35" height="35" viewBox="0 0 35 35" xmlns="http://www.w3.org/2000/svg">
<line x1="1.5" x2="1.5" y2="35" stroke-width="3"/>
<line x1="35" y1="33.5" y2="33.5" stroke-width="3"/>
<line x1="33.5" y1="35" x2="33.5" y2="15" stroke-width="3"/>
<line y1="1.5" x2="20" y2="1.5" stroke-width="3"/>
<path d="M9.50005 25.2132C9.50005 26.0416 10.1716 26.7132 11.0001 26.7132H24.5001C25.3285 26.7132 26.0001 26.0416 26.0001 25.2132C26.0001 24.3848 25.3285 23.7132 24.5001 23.7132L12.5001 23.7132L12.5001 11.7132C12.5001 10.8848 11.8285 10.2132 11.0001 10.2132C10.1716 10.2132 9.50005 10.8848 9.50005 11.7132V25.2132ZM31.1526 2.93934L9.93939 24.1525L12.0607 26.2739L33.2739 5.06066L31.1526 2.93934Z"/>
</svg>
