/* XPM */
static char * bonitasoft_icon_64_64_transparent_xpm[] = {
"64 64 368 2",
"  	c None",
". 	c #CC061D",
"+ 	c #9B0F1B",
"@ 	c #CB071D",
"# 	c #BE091C",
"$ 	c #CC071D",
"% 	c #9A0F1B",
"& 	c #CB081D",
"* 	c #B80A1C",
"= 	c #C90A1E",
"- 	c #CA0A1E",
"; 	c #94111B",
"> 	c #C8091E",
", 	c #CD101F",
"' 	c #B50D1D",
") 	c #CA1220",
"! 	c #CA0F1F",
"~ 	c #90111B",
"{ 	c #C90E1F",
"] 	c #CE1622",
"^ 	c #B00E1D",
"/ 	c #C9081E",
"( 	c #CB1824",
"_ 	c #CA1121",
": 	c #90101A",
"< 	c #CA1223",
"[ 	c #CE1A26",
"} 	c #B60D1D",
"| 	c #CC1D28",
"1 	c #CE1323",
"2 	c #980F1B",
"3 	c #CA1625",
"4 	c #CE202A",
"5 	c #BF0E1F",
"6 	c #C90B1F",
"7 	c #CD222C",
"8 	c #D01927",
"9 	c #A50D1B",
"0 	c #CB1827",
"a 	c #CE252F",
"b 	c #C91123",
"c 	c #8C101A",
"d 	c #C90B20",
"e 	c #CD2530",
"f 	c #D0212D",
"g 	c #B90D1E",
"h 	c #CC1929",
"i 	c #CF2A33",
"j 	c #CF1928",
"k 	c #9F0E1B",
"l 	c #C90A1F",
"m 	c #CE2733",
"n 	c #CF2832",
"o 	c #C91324",
"p 	c #8B1119",
"q 	c #CB1729",
"r 	c #CF2D37",
"s 	c #D12430",
"t 	c #BA0D1F",
"u 	c #C8071E",
"v 	c #CF2634",
"w 	c #D11E2C",
"x 	c #A50E1C",
"y 	c #CB1326",
"z 	c #D12F3B",
"A 	c #D02C37",
"B 	c #CC1828",
"C 	c #920F1A",
"D 	c #CE2131",
"E 	c #D1313C",
"F 	c #D12A35",
"G 	c #C41223",
"H 	c #C90B21",
"I 	c #D12E3C",
"J 	c #D22834",
"K 	c #B50E1E",
"L 	c #CC172A",
"M 	c #D23440",
"N 	c #D32231",
"O 	c #A60E1C",
"P 	c #CE2434",
"Q 	c #D23541",
"R 	c #D1303B",
"S 	c #CE1D2D",
"T 	c #980F1A",
"U 	c #C8091F",
"V 	c #D1303F",
"W 	c #D23340",
"X 	c #D2303B",
"Y 	c #CA1829",
"Z 	c #8C1019",
"` 	c #CA1226",
" .	c #D23644",
"..	c #D2333F",
"+.	c #D22E3A",
"@.	c #C41525",
"#.	c #CA1023",
"$.	c #CA1224",
"%.	c #CA0F23",
"&.	c #CD1B2E",
"*.	c #D33846",
"=.	c #D32D39",
"-.	c #BB1122",
";.	c #C90A20",
">.	c #CC1B2C",
",.	c #D02B37",
"'.	c #D02D39",
").	c #D12F3A",
"!.	c #D12E3A",
"~.	c #D02836",
"{.	c #CD1F2E",
"].	c #C21224",
"^.	c #C91124",
"/.	c #CE2335",
"(.	c #D33946",
"_.	c #D42C39",
":.	c #B10F1F",
"<.	c #C30A1E",
"[.	c #D0313C",
"}.	c #D02F3A",
"|.	c #D02F3B",
"1.	c #D02B38",
"2.	c #CE2030",
"3.	c #CA1B2C",
"4.	c #C91B2C",
"5.	c #CB1F2F",
"6.	c #D22534",
"7.	c #CC1A2B",
"8.	c #C8071D",
"9.	c #D12D3E",
"0.	c #D33845",
"a.	c #D42937",
"b.	c #AB0E1D",
"c.	c #C51627",
"d.	c #D3313D",
"e.	c #D1303C",
"f.	c #D1303D",
"g.	c #CF2735",
"h.	c #C80C20",
"i.	c #BF071B",
"j.	c #BA1122",
"k.	c #D3323F",
"l.	c #D02A38",
"m.	c #C8081E",
"n.	c #D23545",
"o.	c #D33744",
"p.	c #D42635",
"q.	c #A40F1C",
"r.	c #C71729",
"s.	c #D1313E",
"t.	c #D1333F",
"u.	c #9C0E19",
"v.	c #D11D2F",
"w.	c #CA0E23",
"x.	c #CA1125",
"y.	c #D33848",
"z.	c #D22332",
"A.	c #9F0F1B",
"B.	c #BF1123",
"C.	c #D3313F",
"D.	c #D23441",
"E.	c #CC182B",
"F.	c #A30C18",
"G.	c #CC172C",
"H.	c #D33A49",
"I.	c #D33644",
"J.	c #D12332",
"K.	c #AB0D1C",
"L.	c #D42939",
"M.	c #CE2334",
"N.	c #CE1E32",
"O.	c #D43C4B",
"P.	c #D12131",
"Q.	c #9B0F1A",
"R.	c #CA162A",
"S.	c #D33745",
"T.	c #D23645",
"U.	c #D23342",
"V.	c #C90D22",
"W.	c #C8061C",
"X.	c #CE2537",
"Y.	c #D43D4C",
"Z.	c #D33643",
"`.	c #D01E2F",
" +	c #9B0E1A",
".+	c #A90D1B",
"++	c #D52A3B",
"@+	c #D43947",
"#+	c #D33947",
"$+	c #CF2536",
"%+	c #D0293C",
"&+	c #D01F2F",
"*+	c #C31426",
"=+	c #D53747",
"-+	c #D33948",
";+	c #CC162A",
">+	c #C90C22",
",+	c #D12D3F",
"'+	c #D12235",
")+	c #D33B4A",
"!+	c #D23445",
"~+	c #CA0F24",
"{+	c #D13042",
"]+	c #D43B4A",
"^+	c #D32132",
"/+	c #A20D1B",
"(+	c #AD0E1D",
"_+	c #D52F41",
":+	c #D43D4D",
"<+	c #D02D3F",
"[+	c #CA1126",
"}+	c #D32333",
"|+	c #A70D1B",
"1+	c #C41326",
"2+	c #D63A4B",
"3+	c #D43E4E",
"4+	c #D54050",
"5+	c #CF2639",
"6+	c #C8051B",
"7+	c #CA1025",
"8+	c #D23244",
"9+	c #D32735",
"0+	c #B00D1D",
"a+	c #CE1E33",
"b+	c #D64052",
"c+	c #D43F50",
"d+	c #D43F51",
"e+	c #CD1B2F",
"f+	c #D12C3E",
"g+	c #D43F4D",
"h+	c #D23744",
"i+	c #D22836",
"j+	c #BA0B1D",
"k+	c #EE9C7F",
"l+	c #E57E68",
"m+	c #E0695B",
"n+	c #E16C5C",
"o+	c #E78067",
"p+	c #D3273B",
"q+	c #D43C4E",
"r+	c #D53F51",
"s+	c #D0293D",
"t+	c #CB152A",
"u+	c #D02D3E",
"v+	c #D13241",
"w+	c #D12F3C",
"x+	c #CD192B",
"y+	c #C4071C",
"z+	c #E68169",
"A+	c #D74444",
"B+	c #D22939",
"C+	c #D22539",
"D+	c #D22639",
"E+	c #D22A37",
"F+	c #D53A34",
"G+	c #E9896D",
"H+	c #BD081C",
"I+	c #CD0D24",
"J+	c #CA1026",
"K+	c #C9091F",
"L+	c #C8061D",
"M+	c #C9071D",
"N+	c #98121C",
"O+	c #E7846B",
"P+	c #D4343C",
"Q+	c #D22239",
"R+	c #D3253B",
"S+	c #D3263B",
"T+	c #D3243A",
"U+	c #CC071E",
"V+	c #D22928",
"W+	c #EB8F71",
"X+	c #C3071B",
"Y+	c #CA051B",
"Z+	c #AA0D1C",
"`+	c #D84642",
" @	c #D22339",
".@	c #D32A3D",
"+@	c #D11D32",
"@@	c #CC051E",
"#@	c #CB0319",
"$@	c #DB5142",
"%@	c #A90D1C",
"&@	c #CA071D",
"*@	c #BE091D",
"=@	c #E78267",
"-@	c #D1242F",
";@	c #D3283D",
">@	c #D3283C",
",@	c #D3293D",
"'@	c #D11E32",
")@	c #CD0A20",
"!@	c #CB021C",
"~@	c #D2292B",
"{@	c #BC091C",
"]@	c #9E121C",
"^@	c #E3725A",
"/@	c #CC0C1D",
"(@	c #D0172D",
"_@	c #D11F33",
":@	c #D11C31",
"<@	c #CE1228",
"[@	c #CB041D",
"}@	c #D01E26",
"|@	c #A00E1C",
"1@	c #CB061D",
"2@	c #B70B1D",
"3@	c #E67B61",
"4@	c #CC0D1C",
"5@	c #CB031C",
"6@	c #D12428",
"7@	c #C5081D",
"8@	c #A2121D",
"9@	c #EE997B",
"0@	c #D12426",
"a@	c #CB021B",
"b@	c #CC061E",
"c@	c #CB021A",
"d@	c #D74138",
"e@	c #BA0A1C",
"f@	c #CA061D",
"g@	c #C0091D",
"h@	c #DE624D",
"i@	c #CB091A",
"j@	c #CE1820",
"k@	c #E57C61",
"l@	c #B20B1C",
"m@	c #B40E1D",
"n@	c #DB5443",
"o@	c #CD111D",
"p@	c #CB031A",
"q@	c #CB041A",
"r@	c #CF1D23",
"s@	c #E16A52",
"t@	c #B60A1C",
"u@	c #AF111E",
"v@	c #E4765C",
"w@	c #D9463B",
"x@	c #D43330",
"y@	c #D53631",
"z@	c #E57C5F",
"A@	c #C3081D",
"B@	c #C9061D",
"C@	c #B0111F",
"D@	c #A1101C",
"E@	c #B6101F",
"F@	c #94151C",
"G@	c #C2091D",
"H@	c #BE0D1E",
"I@	c #AB1821",
"J@	c #9B181E",
"K@	c #BA0C1D",
"L@	c #C6081D",
"M@	c #B9111F",
"N@	c #AE1A22",
"O@	c #AA1620",
"P@	c #BF0A1D",
"Q@	c #C5091D",
"R@	c #BD101F",
"S@	c #B61722",
"T@	c #B01B23",
"U@	c #B41521",
"V@	c #BD0E1E",
"W@	c #C5091E",
"X@	c #C20D1F",
"Y@	c #C00F20",
"Z@	c #C10D1F",
"`@	c #C30B1E",
"                                                    . +                                                                         ",
"                                                  @ #                                                                           ",
"                                                  $ %                                                                           ",
"                                                & *                                                                             ",
"                                              = - ;                                                                             ",
"                                            > , '                                                                               ",
"                                            ) ! ~                                                                               ",
"                                          { ] ^                                                                                 ",
"                                        / ( _ :                                                                                 ",
"                                        < [ }                                                                                   ",
"                                      = | 1 2                                                                                   ",
"                                      3 4 5                                                                                     ",
"                                    6 7 8 9                                                                                     ",
"                                    0 a b c                                                                                     ",
"                                  d e f g                                                                                       ",
"                                  h i j k                                                                                       ",
"                                l m n o p                                                                                       ",
"                                q r s t                                                                                         ",
"                              u v r w x                                                                                         ",
"                              y z A B C                                                                                         ",
"                              D E F G                                                                                           ",
"                            H I z J K                                                                                           ",
"                            L M z N O                                                                                           ",
"                            P Q R S T                                                                                           ",
"                          U V W X Y Z                                                                                           ",
"                          `  ...+.@.                                          d #.$.%.d                                         ",
"                          &.*...=.-.                                    ;.>.v ,.'.).z !.~.{.].^.                                ",
"                          /.(..._.:.                                  <.v [.}.|.1.2.3.4.5.6._.z 7.                              ",
"                        8.9.0...a.b.                                  c.d.e.f.g.h.i.      k j.k.l.m.                            ",
"                        ;.n.o...p.q.                                  r.k.s.t.L             u.v.w.                              ",
"                        x.y.o.M z.A.                                  B.C.W D.E.            F.                                  ",
"                        G.H.I.M J.+                                   K.L. .I.M.                                                ",
"                        N.O.I.M P.Q.                                    R.S.T.U.V.                                              ",
"                      W.X.Y.Z.M `. +                                    .+++@+#+$+                                              ",
"                      ;.%+O.I.M &+ +                                      *+=+-+-+;+                                            ",
"                      >+,+O.I.M &+ +                                        '+O.)+!+>+                                          ",
"                      ~+{+]+I.M ^+/+                                        (+_+:+:+<+u                                         ",
"                      [+!+]+I.M }+|+                                          1+2+3+4+5+6+                                      ",
"                      7+8+]+I...9+0+                                            a+b+c+d+e+                                      ",
"                      d f+g+h+M i+j+                        k+l+m+n+o+          |+p+q+r+s+W.                                    ",
"                      W.t+u+v+w+x+y+                      z+A+B+C+D+E+F+G+        H+I+J+K+8.8.                                  ",
"                      8.6+8.l K+L+M+N+                  O+P+Q+R+S+S+T+U+V+W+        X+Y+W.8.8.                                  ",
"                      8.8.8.W.L+8.. Z+                  `+ @p+p+p+.@+@@@#@$@        %@@ 8.8.8.8.                                ",
"                        8.8.8.8.8.&@*@                =@-@;@>@,@,@'@)@. !@~@          {@&@8.8.8.8.                              ",
"                        8.8.8.8.8.8.&@]@              ^@/@(@_@:@<@U+. U+[@}@          |@1@8.8.8.8.                              ",
"                        8.8.8.8.8.8.1@2@              3@4@5@U+. . U+U+U+5@6@            7@M+8.8.8.8.                            ",
"                          8.8.8.8.8.8.&@8@            9@0@a@U+U+U+U+U+b@c@d@            e@&@8.8.8.8.                            ",
"                          8.8.8.8.8.8.f@g@              h@i@5@b@U+U+b@a@j@k@            l@1@8.8.8.8.                            ",
"                          8.8.8.8.8.8.8.1@m@              n@o@p@a@a@q@r@s@              t@1@8.8.8.8.8.                          ",
"                          8.8.8.8.8.8.8.8.&@u@              v@w@x@y@$@z@                A@M+8.8.8.8.8.                          ",
"                            8.8.8.8.8.8.8.M+B@C@                                      D@@ 8.8.8.8.8.8.                          ",
"                            8.8.8.8.8.8.8.8.8.B@E@                                  F@G@&@8.8.8.8.8.8.                          ",
"                              8.8.8.8.8.8.8.8.8.f@H@I@                            J@K@1@8.8.8.8.8.8.8.                          ",
"                              8.8.8.8.8.8.8.8.8.8.f@L@M@N@                      O@P@1@8.8.8.8.8.8.8.8.                          ",
"                                8.8.8.8.8.8.8.8.8.8.B@f@Q@R@S@            T@U@V@8.f@8.8.8.8.8.8.8.8.                            ",
"                                  8.8.8.8.8.8.8.8.8.8.8.L+f@M+W@X@Y@Y@Z@`@L@M+f@8.8.8.8.8.8.8.8.8.8.                            ",
"                                  8.8.8.8.8.8.8.8.8.8.8.8.8.8.M+B@B@B@B@B@8.8.8.8.8.8.8.8.8.8.8.8.                              ",
"                                    8.8.8.8.8.8.8.8.8.8.8.8.8.8.8.8.8.8.8.8.8.8.8.8.8.8.8.8.8.8.8.                              ",
"                                      8.8.8.8.8.8.8.8.8.8.8.8.8.8.8.8.8.8.8.8.8.8.8.8.8.8.8.8.8.                                ",
"                                          8.8.8.8.8.8.8.8.8.8.8.8.8.8.8.8.8.8.8.8.8.8.8.8.8.                                    ",
"                                            8.8.8.8.8.8.8.8.8.8.8.8.8.8.8.8.8.8.8.8.8.8.8.                                      ",
"                                                8.8.8.8.8.8.8.8.8.8.8.8.8.8.8.8.8.8.8.                                          ",
"                                                      8.8.8.8.8.8.8.8.8.8.8.8.8.8.                                              ",
"                                                                    8.8.                                                        "};
