<?xml version="1.0" encoding="UTF-8" standalone="no"?>
<!DOCTYPE svg PUBLIC "-//W3C//DTD SVG 1.1//EN" "http://www.w3.org/Graphics/SVG/1.1/DTD/svg11.dtd">
<svg version="1.1" xmlns="http://www.w3.org/2000/svg" xmlns:xlink="http://www.w3.org/1999/xlink" preserveAspectRatio="xMidYMid meet" viewBox="0 0 640 640" width="640" height="640"><defs><path d="M481.03 167.8C481.03 232.86 384.34 285.6 265.07 285.6C145.79 285.6 49.1 232.86 49.1 167.8C49.1 102.74 145.79 50 265.07 50C384.34 50 481.03 102.74 481.03 167.8Z" id="c2NRxz5PY0"></path><path d="M49.1 411.25C49.1 418.32 49.1 474.86 49.1 481.93C49.1 548.68 143.34 599.72 265.07 599.72C282.73 599.72 300.4 597.76 318.07 595.8C288.62 566.35 270.96 525.12 265.07 481.93C265.07 481.93 265.07 481.93 265.07 481.93C170.83 481.93 92.29 454.44 49.1 411.25Z" id="c6SsZcj8w"></path><path d="M49.1 324.86C49.1 391.61 143.34 442.66 265.07 442.66C265.07 442.66 265.07 442.66 267.03 442.66C270.96 395.54 294.51 352.35 325.93 320.94C306.29 322.9 286.66 324.86 265.07 324.86C170.83 324.86 92.29 297.38 49.1 254.18C49.1 268.32 49.1 317.79 49.1 324.86Z" id="cgmJzYRMg"></path><path d="M526.99 438.51C526.99 405.45 526.99 387.08 526.99 383.41C526.99 348.2 498.35 319.55 463.13 319.55C427.92 319.55 399.27 348.2 399.27 383.41C399.27 387.08 399.27 405.45 399.27 438.51L361.71 438.51C361.71 405.45 361.71 387.08 361.71 383.41C361.71 327.49 407.21 281.99 463.13 281.99C519.06 281.99 564.56 327.49 564.56 383.41C564.56 387.08 564.56 405.45 564.56 438.51L526.99 438.51Z" id="c2OVcrdPHj"></path><path d="M350.44 392.18C337.99 392.18 327.9 402.27 327.9 414.72C327.9 428.99 327.9 543.19 327.9 557.46C327.9 569.91 337.99 580 350.44 580C372.98 580 553.29 580 575.83 580C588.27 580 598.36 569.91 598.36 557.46C598.36 543.19 598.36 428.99 598.36 414.72C598.36 402.27 588.27 392.18 575.83 392.18C530.75 392.18 372.98 392.18 350.44 392.18ZM478.16 519.9C478.16 528.2 471.43 534.92 463.13 534.92C454.83 534.92 448.11 528.2 448.11 519.9C448.11 517.98 448.11 502.62 448.11 500.7C439.16 495.5 433.08 485.92 433.08 474.82C433.08 458.22 446.54 444.77 463.13 444.77C479.73 444.77 493.18 458.22 493.18 474.82C493.18 485.92 487.11 495.5 478.16 500.7C478.16 504.54 478.16 517.98 478.16 519.9Z" id="f1riRTa4"></path></defs><g><g><g><use xlink:href="#c2NRxz5PY0" opacity="1" fill="#c8c8c8" fill-opacity="1"></use><g><use xlink:href="#c2NRxz5PY0" opacity="1" fill-opacity="0" stroke="#000000" stroke-width="1" stroke-opacity="0"></use></g></g><g><use xlink:href="#c6SsZcj8w" opacity="1" fill="#c8c8c8" fill-opacity="1"></use><g><use xlink:href="#c6SsZcj8w" opacity="1" fill-opacity="0" stroke="#000000" stroke-width="1" stroke-opacity="0"></use></g></g><g><use xlink:href="#cgmJzYRMg" opacity="1" fill="#c8c8c8" fill-opacity="1"></use><g><use xlink:href="#cgmJzYRMg" opacity="1" fill-opacity="0" stroke="#000000" stroke-width="1" stroke-opacity="0"></use></g></g><g><use xlink:href="#c2OVcrdPHj" opacity="1" fill="#517090" fill-opacity="1"></use><g><use xlink:href="#c2OVcrdPHj" opacity="1" fill-opacity="0" stroke="#000000" stroke-width="1" stroke-opacity="0"></use></g></g><g><use xlink:href="#f1riRTa4" opacity="1" fill="#517090" fill-opacity="1"></use><g><use xlink:href="#f1riRTa4" opacity="1" fill-opacity="0" stroke="#000000" stroke-width="1" stroke-opacity="0"></use></g></g></g></g></svg>