<?xml version="1.0" encoding="UTF-8" standalone="no"?>
<!DOCTYPE svg PUBLIC "-//W3C//DTD SVG 1.1//EN" "http://www.w3.org/Graphics/SVG/1.1/DTD/svg11.dtd">
<svg version="1.1" xmlns="http://www.w3.org/2000/svg" xmlns:xlink="http://www.w3.org/1999/xlink" preserveAspectRatio="xMidYMid meet" viewBox="0 0 640 640" width="640" height="640"><defs><path d="M475.17 144.14C475.17 212.7 373.28 268.28 247.59 268.28C121.89 268.28 20 212.7 20 144.14C20 75.58 121.89 20 247.59 20C373.28 20 475.17 75.58 475.17 144.14Z" id="cgyhQweeA"></path><path d="M20 400.69C20 408.14 20 467.72 20 475.17C20 545.52 119.31 599.31 247.59 599.31C266.21 599.31 284.83 597.24 303.45 595.17C272.41 564.14 253.79 520.69 247.59 475.17C247.59 475.17 247.59 475.17 247.59 475.17C148.28 475.17 65.52 446.21 20 400.69Z" id="m7SGYRinZG"></path><path d="M20 309.66C20 380 119.31 433.79 247.59 433.79C247.59 433.79 247.59 433.79 249.66 433.79C253.79 384.14 278.62 338.62 311.72 305.52C291.03 307.59 270.34 309.66 247.59 309.66C148.28 309.66 65.52 280.69 20 235.17C20 250.07 20 302.21 20 309.66Z" id="aunz79pzQ"></path><path d="M433.42 294.58C347.03 294.58 277 364.61 277 451C277 537.39 347.03 607.42 433.42 607.42C519.81 607.42 589.84 537.39 589.84 451C589.84 364.61 519.81 294.58 433.42 294.58Z" id="e4D0w77VI"></path><path d="M474.97 446.93C474.97 425.42 474.97 413.47 474.97 411.08C474.97 388.17 456.33 369.53 433.42 369.53C410.51 369.53 391.87 388.17 391.87 411.08C391.87 413.47 391.87 425.42 391.87 446.93L367.43 446.93C367.43 425.42 367.43 413.47 367.43 411.08C367.43 374.69 397.03 345.09 433.42 345.09C469.81 345.09 499.41 374.69 499.41 411.08C499.41 413.47 499.41 425.42 499.41 446.93L474.97 446.93Z" id="e5BMZ6xWGA"></path><path d="M413.87 470.55C413.87 477.77 417.82 484 423.64 487.39C423.64 488.64 423.64 498.63 423.64 499.88C423.64 505.28 428.02 509.66 433.42 509.66C438.82 509.66 443.19 505.28 443.19 499.88C443.19 498.63 443.19 488.64 443.19 487.39C449.02 484 452.97 477.77 452.97 470.55C452.97 459.75 444.22 451 433.42 451C422.62 451 413.87 459.75 413.87 470.55Z" id="i5rhTJEE2O"></path><path d="M360.1 416.78C352 416.78 345.43 423.35 345.43 431.45C345.43 440.74 345.43 515.03 345.43 524.32C345.43 532.42 352 538.99 360.1 538.99C374.76 538.99 492.08 538.99 506.74 538.99C514.84 538.99 521.4 532.42 521.4 524.32C521.4 515.03 521.4 440.74 521.4 431.45C521.4 423.35 514.84 416.78 506.74 416.78C477.41 416.78 374.76 416.78 360.1 416.78ZM443.19 499.88C443.19 505.28 438.82 509.66 433.42 509.66C428.02 509.66 423.64 505.28 423.64 499.88C423.64 498.63 423.64 488.64 423.64 487.39C417.82 484 413.87 477.77 413.87 470.55C413.87 459.75 422.62 451 433.42 451C444.22 451 452.97 459.75 452.97 470.55C452.97 477.77 449.02 484 443.19 487.39C443.19 489.89 443.19 498.63 443.19 499.88Z" id="bvFfgMziX"></path></defs><g><g><g><use xlink:href="#cgyhQweeA" opacity="1" fill="#c8c8c8" fill-opacity="1"></use><g><use xlink:href="#cgyhQweeA" opacity="1" fill-opacity="0" stroke="#000000" stroke-width="1" stroke-opacity="0"></use></g></g><g><use xlink:href="#m7SGYRinZG" opacity="1" fill="#c8c8c8" fill-opacity="1"></use><g><use xlink:href="#m7SGYRinZG" opacity="1" fill-opacity="0" stroke="#000000" stroke-width="1" stroke-opacity="0"></use></g></g><g><use xlink:href="#aunz79pzQ" opacity="1" fill="#c8c8c8" fill-opacity="1"></use><g><use xlink:href="#aunz79pzQ" opacity="1" fill-opacity="0" stroke="#000000" stroke-width="1" stroke-opacity="0"></use></g></g><g><use xlink:href="#e4D0w77VI" opacity="1" fill="#517090" fill-opacity="1"></use><g><use xlink:href="#e4D0w77VI" opacity="1" fill-opacity="0" stroke="#000000" stroke-width="1" stroke-opacity="0"></use></g></g><g><use xlink:href="#e5BMZ6xWGA" opacity="1" fill="#c8c8c8" fill-opacity="1"></use><g><use xlink:href="#e5BMZ6xWGA" opacity="1" fill-opacity="0" stroke="#000000" stroke-width="1" stroke-opacity="0"></use></g></g><g><use xlink:href="#i5rhTJEE2O" opacity="1" fill="#517090" fill-opacity="1"></use><g><use xlink:href="#i5rhTJEE2O" opacity="1" fill-opacity="0" stroke="#000000" stroke-width="1" stroke-opacity="0"></use></g></g><g><use xlink:href="#bvFfgMziX" opacity="1" fill="#c8c8c8" fill-opacity="1"></use><g><use xlink:href="#bvFfgMziX" opacity="1" fill-opacity="0" stroke="#000000" stroke-width="1" stroke-opacity="0"></use></g></g></g></g></svg>