<svg width="16" height="16" xmlns="http://www.w3.org/2000/svg">
 <title/>
 <desc/>

 <g>
  <title>background</title>
  <rect fill="none" id="canvas_background" height="402" width="582" y="-1" x="-1"/>
 </g>
 <g>
  <title>Layer 1</title>
  <path id="Shape" d="m0,4l4,0l0,-4l-4,0l0,4l0,0zm6,12l4,0l0,-4l-4,0l0,4l0,0zm-6,0l4,0l0,-4l-4,0l0,4l0,0zm0,-6l4,0l0,-4l-4,0l0,4l0,0zm6,0l4,0l0,-4l-4,0l0,4l0,0zm6,-10l0,4l4,0l0,-4l-4,0l0,0zm-6,4l4,0l0,-4l-4,0l0,4l0,0zm6,6l4,0l0,-4l-4,0l0,4l0,0zm0,6l4,0l0,-4l-4,0l0,4l0,0z"/>
 </g>
</svg>