<svg width="20" height="20" xmlns="http://www.w3.org/2000/svg">

 <g>
  <title>background</title>
  <rect fill="none" id="canvas_background" height="402" width="582" y="-1" x="-1"/>
 </g>
 <g>
  <title>Layer 1</title>
  <path id="svg_1" fill="#044464" d="m3,12l0,3c0,1.6569 3.13401,3 7,3c3.866,0 7,-1.3431 7,-3l0,-3c0,1.6569 -3.134,3 -7,3c-3.86599,0 -7,-1.3431 -7,-3z"/>
  <path id="svg_2" fill="#044464" d="m3,7l0,3c0,1.6569 3.13401,3 7,3c3.866,0 7,-1.3431 7,-3l0,-3c0,1.65685 -3.134,3 -7,3c-3.86599,0 -7,-1.34315 -7,-3z"/>
  <path id="svg_3" fill="#044464" d="m17,5c0,1.65685 -3.134,3 -7,3c-3.86599,0 -7,-1.34315 -7,-3c0,-1.65685 3.13401,-3 7,-3c3.866,0 7,1.34315 7,3z"/>
 </g>
</svg>