<svg width="32" height="32" xmlns="http://www.w3.org/2000/svg">

 <g>
  <title>background</title>
  <rect fill="none" id="canvas_background" height="402" width="582" y="-1" x="-1"/>
 </g>
 <g>
  <title>Layer 1</title>
  <path fill="#044464" id="svg_1" d="m23,28c-1.1,0 -2.1,-0.7 -2.5,-1.8c0,-0.1 0,-0.2 -0.1,-0.2l-8.9,0c0,0.1 0,0.2 -0.1,0.2c-0.3,1.1 -1.3,1.8 -2.4,1.8c-0.6,0 -1,0.4 -1,1s0.4,1 1,1l14,0c0.6,0 1,-0.4 1,-1s-0.4,-1 -1,-1z"/>
  <circle fill="#c40404" id="svg_3" r="3" cy="13" cx="16"/>
  <path fill="#044464" id="svg_4" d="m27,3l-22,0c-1.7,0 -3,1.3 -3,3l0,15c0,1.7 1.3,3 3,3l6.9,0l8.1,0l7,0c1.7,0 3,-1.3 3,-3l0,-15c0,-1.7 -1.3,-3 -3,-3zm-3.3,12.1c-0.1,0.5 -0.7,0.8 -1.2,0.7c-0.7,-0.2 -1.2,0 -1.3,0.2c-0.1,0.2 0,0.7 0.5,1.3c0.4,0.4 0.4,1 0,1.4c-1,1 -2.2,1.7 -3.6,2.1c-0.5,0.1 -1.1,-0.2 -1.2,-0.7c-0.2,-0.7 -0.6,-1 -0.9,-1s-0.6,0.4 -0.9,1c-0.1,0.4 -0.5,0.7 -1,0.7c-0.1,0 -0.2,0 -0.3,0c-1.4,-0.4 -2.6,-1.1 -3.6,-2.1c-0.4,-0.4 -0.4,-1 0,-1.4c0.5,-0.5 0.6,-1 0.5,-1.3c-0.1,-0.2 -0.6,-0.4 -1.3,-0.2c-0.5,0.1 -1.1,-0.2 -1.2,-0.7c-0.1,-0.7 -0.2,-1.4 -0.2,-2.1s0.1,-1.4 0.3,-2.1c0.1,-0.5 0.7,-0.8 1.2,-0.7c0.7,0.2 1.2,0 1.3,-0.2c0.1,-0.2 0,-0.7 -0.5,-1.3c-0.4,-0.4 -0.4,-1 0,-1.4c1,-1 2.2,-1.7 3.6,-2.1c0.5,-0.1 1.1,0.2 1.2,0.8c0.2,0.7 0.6,1 0.9,1s0.6,-0.4 0.9,-1c0.2,-0.5 0.7,-0.8 1.2,-0.7c1.4,0.4 2.6,1.1 3.6,2.1c0.4,0.4 0.4,1 0,1.4c-0.5,0.5 -0.6,1 -0.5,1.3c0.1,0.2 0.6,0.4 1.3,0.2c0.5,-0.1 1.1,0.2 1.2,0.7c0.2,0.7 0.3,1.4 0.3,2.1s-0.1,1.3 -0.3,2z"/>
 </g>
</svg>