<svg width="32" height="32" xmlns="http://www.w3.org/2000/svg">

 <g>
  <title>background</title>
  <rect fill="none" id="canvas_background" height="402" width="582" y="-1" x="-1"/>
 </g>
 <g>
  <title>Layer 1</title>
  <path fill="#044464" id="XMLID_276_" d="m29.815,6.168c-0.331,-0.72 -1.032,-1.168 -1.829,-1.168l-23.972,0c-0.797,0 -1.498,0.448 -1.83,1.168c-0.329,0.714 -0.215,1.53 0.297,2.128c0,0 0.001,0.001 0.001,0.001l9.518,11.074l0,8.629c0,0.369 0.203,0.708 0.528,0.882c0.148,0.079 0.31,0.118 0.472,0.118c0.194,0 0.387,-0.057 0.555,-0.168l6,-4c0.278,-0.186 0.445,-0.498 0.445,-0.832l0,-4.629l9.519,-11.074c0.512,-0.599 0.626,-1.415 0.296,-2.129z"/>
 </g>
</svg>