<?xml version="1.0" encoding="UTF-8" standalone="no"?>
<!DOCTYPE svg PUBLIC "-//W3C//DTD SVG 1.1//EN" "http://www.w3.org/Graphics/SVG/1.1/DTD/svg11.dtd">
<svg version="1.1" xmlns="http://www.w3.org/2000/svg" xmlns:xlink="http://www.w3.org/1999/xlink" preserveAspectRatio="xMidYMid meet" viewBox="0 0 640 640" width="640" height="640"><defs><path d="M109.12 504.77C116.59 508.89 125.09 511.2 133.33 511.2C133.58 511.2 133.84 511.2 134.36 511.2C142.85 511.2 151.35 508.89 158.82 504.77C170.4 498.07 179.16 487 184.82 471.3C189.45 458.68 195.12 441.95 196.15 424.44C197.44 405.38 191.51 387.36 179.93 375.26C168.6 363.42 152.12 356.98 134.36 357.75C116.08 357.24 99.6 363.42 88.27 375.26C76.68 387.36 70.5 405.38 72.05 424.44C72.82 441.95 78.49 458.68 83.12 471.3C88.78 487 97.54 498.33 109.12 504.77ZM134.1 381.96C145.43 381.44 155.47 385.3 161.91 392C168.86 399.21 172.2 410.28 171.43 422.64C170.4 437.05 165.51 451.73 161.39 462.8C157.79 472.84 152.64 479.79 146.2 483.4C142.34 485.46 137.7 486.49 133.33 486.74C128.95 486.74 124.57 485.71 120.71 483.4C114.27 479.79 109.12 472.84 105.52 462.8C105.52 462.8 105.52 462.8 105.52 462.8C101.4 451.73 96.51 437.05 95.48 422.64C95.22 410.28 98.57 399.21 105.52 392C112.21 385.05 122 381.44 134.1 381.96Z" id="a1GmvymADf"></path><path d="M219.84 539.78C201.04 532.06 175.04 520.73 175.04 520.73C174.61 520.54 172.46 519.6 168.6 517.9C165.2 520.37 163.31 521.74 162.94 522.02C162.94 522.02 160.62 523.82 158.82 524.85C154.44 527.68 149.8 529.48 144.91 530.77C142.08 531.54 139.25 531.8 136.93 531.8C136.31 531.8 131.37 531.8 130.75 531.8C128.18 531.8 125.6 531.29 122.51 530.51C117.62 529.48 112.99 527.42 108.35 524.33C107.07 523.56 104.75 521.76 104.75 521.76C104.32 521.45 102.17 519.91 98.31 517.13C94.14 519.44 91.82 520.73 91.36 520.99C91.1 520.99 90.33 521.5 89.3 522.02C82.09 525.36 63.3 533.09 47.85 539.52C31.63 546.22 20.3 560.38 17.21 577.37C16.61 580.53 13.6 596.32 8.2 624.75L260 624.75L250.73 577.63C240.95 556.69 230.65 544.07 219.84 539.78ZM40.9 582.01C42.44 573 48.62 565.53 56.86 562.18C63.81 559.35 85.18 550.6 96.25 545.7C102.95 549.82 109.9 552.66 117.11 554.46C121.48 555.49 125.86 556 130.75 556.26C131.45 556.26 137.01 556.26 137.7 556.26C141.82 556 146.2 555.49 150.58 554.46C158.04 552.66 165.25 549.82 171.43 545.7C171.43 545.7 171.69 545.7 171.69 545.45C180.7 549.31 197.44 556.52 210.82 561.92C219.32 565.53 225.24 572.74 227.04 581.75C227.28 582.99 228.49 589.16 230.65 600.29L37.29 600.29L37.29 600.54C39.45 589.42 40.66 583.24 40.9 582.01Z" id="bFmRTuWa0"></path><path d="M177.41 431.66C177.41 464.21 157.88 490.63 133.81 490.63C109.75 490.63 90.21 464.21 90.21 431.66C90.21 399.12 109.75 372.69 133.81 372.69C157.88 372.69 177.41 399.12 177.41 431.66Z" id="dNVM4TAha"></path><path d="M34.6 559.24L237.12 559.24L237.12 615.22L34.6 615.22L34.6 559.24Z" id="abXLnd5hU"></path><path d="M59.96 541.13L208.15 541.13L208.15 574.6L59.96 574.6L59.96 541.13Z" id="aQKhZAlbB"></path><path d="M479.12 504.65C486.59 508.77 495.09 511.08 503.33 511.08C503.58 511.08 503.84 511.08 504.36 511.08C512.85 511.08 521.35 508.77 528.82 504.65C540.4 497.95 549.16 486.88 554.82 471.18C559.45 458.56 565.12 441.82 566.15 424.32C567.44 405.26 561.51 387.24 549.93 375.14C538.6 363.3 522.12 356.86 504.36 357.63C486.08 357.12 469.6 363.3 458.27 375.14C446.68 387.24 440.5 405.26 442.05 424.32C442.82 441.82 448.49 458.56 453.12 471.18C458.78 486.88 467.54 498.21 479.12 504.65ZM504.1 381.83C515.43 381.32 525.47 385.18 531.91 391.88C538.86 399.08 542.2 410.16 541.43 422.51C540.4 436.93 535.51 451.61 531.39 462.68C527.79 472.72 522.64 479.67 516.2 483.28C512.34 485.34 507.7 486.37 503.33 486.62C498.95 486.62 494.57 485.59 490.71 483.28C484.27 479.67 479.12 472.72 475.52 462.68C475.52 462.68 475.52 462.68 475.52 462.68C471.4 451.61 466.51 436.93 465.48 422.51C465.22 410.16 468.57 399.08 475.52 391.88C482.21 384.92 492 381.32 504.1 381.83Z" id="bxylIQkeI"></path><path d="M589.84 539.66C571.04 531.94 545.04 520.61 545.04 520.61C544.61 520.42 542.46 519.48 538.6 517.78C535.2 520.25 533.31 521.62 532.94 521.9C532.94 521.9 530.62 523.7 528.82 524.73C524.44 527.56 519.8 529.36 514.91 530.65C512.08 531.42 509.25 531.68 506.93 531.68C506.31 531.68 501.37 531.68 500.75 531.68C498.18 531.68 495.6 531.16 492.51 530.39C487.62 529.36 482.99 527.3 478.35 524.21C477.07 523.44 474.75 521.64 474.75 521.64C474.32 521.33 472.17 519.78 468.31 517C464.14 519.32 461.82 520.61 461.36 520.87C461.1 520.87 460.33 521.38 459.3 521.9C452.09 525.24 433.3 532.97 417.85 539.4C401.63 546.1 390.3 560.26 387.21 577.25C386.61 580.41 383.6 596.2 378.2 624.63L630 624.63L620.73 577.51C610.95 556.57 600.65 543.95 589.84 539.66ZM410.9 581.89C412.44 572.87 418.62 565.41 426.86 562.06C433.81 559.23 455.18 550.47 466.25 545.58C472.95 549.7 479.9 552.53 487.11 554.34C491.48 555.37 495.86 555.88 500.75 556.14C501.45 556.14 507.01 556.14 507.7 556.14C511.82 555.88 516.2 555.37 520.58 554.34C528.04 552.53 535.25 549.7 541.43 545.58C541.43 545.58 541.69 545.58 541.69 545.33C550.7 549.19 567.44 556.4 580.82 561.8C589.32 565.41 595.24 572.62 597.04 581.63C597.28 582.86 598.49 589.04 600.65 600.17L407.29 600.17L407.29 600.42C409.45 589.3 410.66 583.12 410.9 581.89Z" id="d1jmhvVYhg"></path><path d="M547.41 431.54C547.41 464.09 527.88 490.51 503.81 490.51C479.75 490.51 460.21 464.09 460.21 431.54C460.21 398.99 479.75 372.57 503.81 372.57C527.88 372.57 547.41 398.99 547.41 431.54Z" id="d2VJEFHB2"></path><path d="M404.6 559.12L607.12 559.12L607.12 615.1L404.6 615.1L404.6 559.12Z" id="bkkkjgyn"></path><path d="M429.96 541L578.15 541L578.15 574.48L429.96 574.48L429.96 541Z" id="a5mGe5h0ak"></path><path d="M394.16 465.37C397.77 459.71 395.96 452.24 390.3 448.64C386.39 446.18 366.82 433.91 331.6 411.82C331.29 369.8 331.12 346.46 331.08 341.79C331.08 335.09 325.67 329.69 318.98 329.69C318.98 329.69 318.98 329.69 318.98 329.69C312.29 329.69 306.88 335.09 306.88 342.04C306.91 346.66 307.09 369.75 307.39 411.3C271.71 433.55 251.88 445.91 247.92 448.38C242.26 451.98 240.45 459.45 244.06 465.11C246.38 468.72 250.24 470.78 254.36 470.78C256.67 470.78 258.73 470.26 260.79 468.98C264.69 466.56 284.17 454.45 319.24 432.67C354.15 454.61 373.55 466.8 377.43 469.23C379.49 470.26 381.8 471.04 383.86 471.04C387.98 471.04 391.84 468.98 394.16 465.37Z" id="f1JUI3DB5Z"></path><path d="M294.52 162.08C301.99 166.2 310.48 168.51 318.72 168.51C318.98 168.51 319.24 168.51 319.75 168.51C328.25 168.51 336.75 166.2 344.21 162.08C355.8 155.38 364.55 144.31 370.22 128.6C374.85 115.99 380.52 99.25 381.55 81.75C382.83 62.69 376.91 44.67 365.32 32.57C354 20.73 337.52 14.29 319.75 15.06C301.47 14.55 285 20.73 273.67 32.57C262.08 44.67 255.9 62.69 257.45 81.75C258.22 99.25 263.88 115.99 268.52 128.6C274.18 144.31 282.94 155.64 294.52 162.08ZM319.5 39.26C330.82 38.75 340.87 42.61 347.3 49.31C354.25 56.51 357.6 67.59 356.83 79.94C355.8 94.36 350.91 109.04 346.79 120.11C343.18 130.15 338.03 137.1 331.6 140.71C327.73 142.77 323.1 143.8 318.72 144.05C314.35 144.05 309.97 143.02 306.11 140.71C299.67 137.1 294.52 130.15 290.92 120.11C290.92 120.11 290.92 120.11 290.92 120.11C286.8 109.04 281.91 94.36 280.88 79.94C280.62 67.59 283.97 56.51 290.92 49.31C297.61 42.35 307.39 38.75 319.5 39.26Z" id="a2ZhYGIWDc"></path><path d="M405.23 197.09C386.44 189.37 360.43 178.04 360.43 178.04C360 177.85 357.86 176.91 354 175.21C350.6 177.68 348.71 179.05 348.33 179.33C348.33 179.33 346.01 181.13 344.21 182.16C339.84 184.99 335.2 186.79 330.31 188.08C327.48 188.85 324.64 189.11 322.33 189.11C321.71 189.11 316.77 189.11 316.15 189.11C313.57 189.11 311 188.59 307.91 187.82C303.02 186.79 298.38 184.73 293.75 181.64C292.46 180.87 290.14 179.07 290.14 179.07C289.72 178.76 287.57 177.21 283.71 174.43C279.54 176.75 277.22 178.04 276.76 178.3C276.5 178.3 275.73 178.81 274.7 179.33C267.49 182.67 248.69 190.4 233.24 196.83C217.02 203.53 205.7 217.69 202.61 234.68C202.01 237.84 199 253.63 193.59 282.05L445.4 282.05L436.13 234.94C426.34 214 416.05 201.38 405.23 197.09ZM226.29 239.32C227.84 230.3 234.02 222.84 242.26 219.49C249.21 216.66 270.58 207.9 281.65 203.01C288.34 207.13 295.29 209.96 302.5 211.77C306.88 212.8 311.26 213.31 316.15 213.57C316.84 213.57 322.41 213.57 323.1 213.57C327.22 213.31 331.6 212.8 335.97 211.77C343.44 209.96 350.65 207.13 356.83 203.01C356.83 203.01 357.09 203.01 357.09 202.76C366.1 206.62 382.83 213.83 396.22 219.23C404.72 222.84 410.64 230.05 412.44 239.06C412.68 240.29 413.88 246.47 416.05 257.6L222.69 257.6L222.69 257.85C224.85 246.73 226.05 240.55 226.29 239.32Z" id="gOICk1SHy"></path><path d="M362.81 88.97C362.81 121.52 343.27 147.94 319.21 147.94C295.15 147.94 275.61 121.52 275.61 88.97C275.61 56.42 295.15 30 319.21 30C343.27 30 362.81 56.42 362.81 88.97Z" id="fBAQ6Wc1"></path><path d="M220 216.55L422.52 216.55L422.52 272.53L220 272.53L220 216.55Z" id="fmCk6LIoB"></path><path d="M245.36 198.43L393.54 198.43L393.54 231.91L245.36 231.91L245.36 198.43Z" id="aaDaMdab4"></path></defs><g><g><g><g><use xlink:href="#a1GmvymADf" opacity="1" fill="#044464" fill-opacity="1"></use><g><use xlink:href="#a1GmvymADf" opacity="1" fill-opacity="0" stroke="#000000" stroke-width="1" stroke-opacity="0"></use></g></g><g><use xlink:href="#bFmRTuWa0" opacity="1" fill="#044464" fill-opacity="1"></use><g><use xlink:href="#bFmRTuWa0" opacity="1" fill-opacity="0" stroke="#000000" stroke-width="1" stroke-opacity="0"></use></g></g><g><use xlink:href="#dNVM4TAha" opacity="1" fill="#044464" fill-opacity="1"></use></g><g><use xlink:href="#abXLnd5hU" opacity="1" fill="#044464" fill-opacity="1"></use></g><g><use xlink:href="#aQKhZAlbB" opacity="1" fill="#044464" fill-opacity="1"></use></g></g><g><g><use xlink:href="#bxylIQkeI" opacity="1" fill="#044464" fill-opacity="1"></use><g><use xlink:href="#bxylIQkeI" opacity="1" fill-opacity="0" stroke="#000000" stroke-width="1" stroke-opacity="0"></use></g></g><g><use xlink:href="#d1jmhvVYhg" opacity="1" fill="#044464" fill-opacity="1"></use><g><use xlink:href="#d1jmhvVYhg" opacity="1" fill-opacity="0" stroke="#000000" stroke-width="1" stroke-opacity="0"></use></g></g><g><use xlink:href="#d2VJEFHB2" opacity="1" fill="#044464" fill-opacity="1"></use></g><g><use xlink:href="#bkkkjgyn" opacity="1" fill="#044464" fill-opacity="1"></use></g><g><use xlink:href="#a5mGe5h0ak" opacity="1" fill="#044464" fill-opacity="1"></use></g></g><g><use xlink:href="#f1JUI3DB5Z" opacity="1" fill="#c40404" fill-opacity="1"></use><g><use xlink:href="#f1JUI3DB5Z" opacity="1" fill-opacity="0" stroke="#000000" stroke-width="1" stroke-opacity="0"></use></g></g><g><g><use xlink:href="#a2ZhYGIWDc" opacity="1" fill="#044464" fill-opacity="1"></use><g><use xlink:href="#a2ZhYGIWDc" opacity="1" fill-opacity="0" stroke="#000000" stroke-width="1" stroke-opacity="0"></use></g></g><g><use xlink:href="#gOICk1SHy" opacity="1" fill="#044464" fill-opacity="1"></use><g><use xlink:href="#gOICk1SHy" opacity="1" fill-opacity="0" stroke="#000000" stroke-width="1" stroke-opacity="0"></use></g></g><g><use xlink:href="#fBAQ6Wc1" opacity="1" fill="#044464" fill-opacity="1"></use></g><g><use xlink:href="#fmCk6LIoB" opacity="1" fill="#044464" fill-opacity="1"></use></g><g><use xlink:href="#aaDaMdab4" opacity="1" fill="#044464" fill-opacity="1"></use></g></g></g></g></svg>