<svg width="185.20832" height="185.20832" xmlns="http://www.w3.org/2000/svg">

 <g>
  <title>background</title>
  <rect fill="none" id="canvas_background" height="402" width="582" y="-1" x="-1"/>
 </g>
 <g>
  <title>Layer 1</title>
  <path fill="none" fill-rule="nonzero" stroke="#000000" stroke-width="9.260416" stroke-linecap="round" stroke-linejoin="round" stroke-miterlimit="6.2" stroke-dashoffset="0" id="path851" d="m779.661759,-2243.480034c3.39877,-2.5377 2.99925,-7.8285 0,-10.8277l-36.20385,-36.2043c-2.99924,-2.9992 -7.82831,-2.9992 -10.82755,0l-58.71681,58.6149l-58.63793,58.53587c-3.02589,18.77157 -6.1309,37.62221 -9.15691,56.3938l56.18187,-9.36844c30.37245,-30.37282 44.72497,-44.67089 59.21122,-59.10268c14.48613,-14.43185 28.73348,-28.62465 58.14996,-58.04145z"/>
  <rect fill="#000000" fill-rule="nonzero" stroke-width="9.260416" stroke-linecap="round" stroke-linejoin="round" stroke-miterlimit="6.2" stroke-dashoffset="0" y="1035.049968" x="-2117.995823" width="11.06725" transform="matrix(-0.70710294,0.70711062,-0.70710294,-0.70711062,0,0) " ry="5.0819" id="rect919" height="67.306938"/>
  <path fill="#000000" stroke-width="0.264583px" id="path925" d="m639.692739,-2117.791284l-32.29813,-32.29847l-1.2759,33.12229l33.57403,-0.82382z"/>
  <rect fill="#000000" fill-rule="nonzero" stroke-width="9.260416" stroke-linecap="round" stroke-linejoin="round" stroke-miterlimit="6.2" stroke-dashoffset="0" y="1035.473428" x="-1984.285493" width="11.06725" transform="matrix(-0.70710294,0.70711062,-0.70710294,-0.70711062,0,0) " ry="5.0819" id="rect927" height="67.306938"/>
  <ellipse fill="#000000" fill-rule="nonzero" stroke-width="9.260416" stroke-linecap="round" stroke-linejoin="round" stroke-miterlimit="4" stroke-dashoffset="0" ry="5.341983" rx="5.334151" id="path1009" cy="-2251.618202" cx="-131.107802"/>
  <path fill="none" stroke="#000000" stroke-width="9.260416" stroke-linecap="round" stroke-linejoin="round" stroke-miterlimit="4" id="path1011" d="m-131.107812,-2233.796202l0,37.8585"/>
  <path fill="none" fill-rule="nonzero" stroke="#000000" stroke-width="9.260416" stroke-linecap="round" stroke-linejoin="round" stroke-miterlimit="6.2" stroke-dashoffset="0" id="rect1013" d="m-215.274282,-2278.594802c-2.10926,0 -3.80747,1.7045 -3.80747,3.8223l0,103.5679c0,2.1178 1.69821,3.8231 3.80747,3.8231l23.24053,0l0,36.2859l71.37453,-36.2859l31.63448,0l42.08329,0c2.10914,0 3.80758,-1.7053 3.80758,-3.8231l0,-103.5679c0,-2.1178 -1.69844,-3.8223 -3.80758,-3.8223l-168.33283,0z"/>
  <path fill="none" stroke="#000000" stroke-width="9.260416" stroke-linecap="round" stroke-linejoin="round" stroke-miterlimit="4" id="path1080" d="m-1049.365594,-945.194201l41.1225,0l69.633,-108.80316l23.9087,0l41.1225,0"/>
  <path fill="none" stroke="#000000" stroke-width="9.260416" stroke-linecap="round" stroke-linejoin="round" stroke-miterlimit="4" id="path1084" d="m-873.578894,-1053.997381l-39.6587,-19.99314"/>
  <path fill="none" stroke="#000000" stroke-width="9.260416" stroke-linecap="round" stroke-linejoin="round" stroke-miterlimit="4" id="path1100" d="m-873.578894,-1053.997381l-39.6587,19.99316"/>
  <path fill="none" stroke="#000000" stroke-width="9.260416" stroke-linecap="round" stroke-linejoin="round" stroke-miterlimit="4" id="path1106" d="m-873.578894,-945.194201l-39.6587,-19.99316"/>
  <path fill="none" stroke="#000000" stroke-width="9.260416" stroke-linecap="round" stroke-linejoin="round" stroke-miterlimit="4" id="path1108" d="m-873.578894,-945.194201l-39.6587,19.99316"/>
  <path fill="none" stroke="#000000" stroke-width="9.260416" stroke-linecap="round" stroke-linejoin="round" stroke-miterlimit="4" id="path1092" d="m-1049.412594,-1053.989731l41.1225,0l69.6331,108.80316l23.9086,0l41.1226,0"/>
  <path fill="none" fill-rule="nonzero" stroke="#000000" stroke-width="9.260416" stroke-linecap="round" stroke-linejoin="round" stroke-miterlimit="6.2" stroke-dashoffset="0" id="rect989-9" d="m-1019.807339,-1476.418098l104.67358,0c3.37276,0 6.08811,2.70492 6.08811,6.06485l0,144.09387c0,3.35992 -2.71535,6.06484 -6.08811,6.06484l-104.67358,0c-3.37287,0 -6.08822,-2.70492 -6.08822,-6.06484l0,-144.09387c0,-3.35993 2.71535,-6.06485 6.08822,-6.06485z"/>
  <path fill="none" stroke="#000000" stroke-width="9.260416" stroke-linecap="round" stroke-linejoin="round" stroke-miterlimit="4" id="path1131" d="m-1025.450079,-1490.834718l116.31654,0"/>
  <path fill="none" stroke="#000000" stroke-width="9.260416" stroke-linecap="round" stroke-linejoin="round" stroke-miterlimit="4" id="path1133" d="m-1000.520769,-1456.241598l0,115.87056"/>
  <path fill="none" stroke="#000000" stroke-width="9.260416" stroke-linecap="round" stroke-linejoin="round" stroke-miterlimit="4" id="path1135" d="m-967.470609,-1456.241598l0,115.87056"/>
  <path fill="none" stroke="#000000" stroke-width="9.260416" stroke-linecap="round" stroke-linejoin="round" stroke-miterlimit="4" id="path1137" d="m-934.420439,-1456.241598l0,115.87056"/>
  <path fill="none" stroke="#000000" stroke-width="9.260416" stroke-linecap="round" stroke-linejoin="round" stroke-miterlimit="4" id="path1139" d="m-984.371449,-1496.141978l34.15927,0"/>
  <path fill="none" fill-rule="nonzero" stroke="#000000" stroke-width="9.260415" stroke-linecap="round" stroke-linejoin="round" stroke-miterlimit="6.2" stroke-dashoffset="0" id="rect1147" d="m-2106.139764,-1372.403782l-0.00027,50.63486c0,1.26357 -0.84285,2.2808 -1.89013,2.2808l-172.17305,0c-1.04714,0 -1.89013,-1.01723 -1.89013,-2.2808l0,-50.63486"/>
  <path fill="none" stroke="#000000" stroke-width="9.260416" stroke-linecap="round" stroke-linejoin="round" stroke-miterlimit="4" id="path1149" d="m-2194.116554,-1496.782782l0,150.83497"/>
  <path fill="none" stroke="#000000" stroke-width="9.260416" stroke-linecap="round" stroke-linejoin="round" stroke-miterlimit="4" id="path1151" d="m-2194.116554,-1345.947902l-43.48169,-44.42384"/>
  <path fill="none" stroke="#000000" stroke-width="9.260416" stroke-linecap="round" stroke-linejoin="round" stroke-miterlimit="4" id="path1153" d="m-2194.116554,-1345.947902l43.4817,-44.42384"/>
  <path fill="none" stroke="#000000" stroke-width="9.260416" stroke-linecap="round" stroke-linejoin="round" stroke-miterlimit="4" id="path1239" d="m-1798.36114,-1320.27754l-0.00016,-175.78177"/>
  <path fill="none" stroke="#000000" stroke-width="9.260416" stroke-linecap="round" stroke-linejoin="round" stroke-miterlimit="4" id="path1241" d="m-1763.21798,-1320.17795l-70.28647,-0.00015"/>
  <path fill="none" stroke="#000000" stroke-width="9.260416" stroke-linecap="round" stroke-linejoin="round" stroke-miterlimit="4" id="path1243" d="m-1763.21782,-1496.15876l-70.28647,-0.00015"/>
  <path fill="none" stroke="#000000" stroke-width="9.260416" stroke-linecap="round" stroke-linejoin="round" stroke-miterlimit="4" id="path1247" d="m-610.363317,-2204.845313l175.8228,0"/>
  <path fill="none" stroke="#000000" stroke-width="9.260416" stroke-linecap="round" stroke-linejoin="round" stroke-miterlimit="4" id="path1249" d="m-610.363317,-2264.030813l175.8228,0"/>
  <path fill="none" stroke="#000000" stroke-width="9.260416" stroke-linecap="round" stroke-linejoin="round" stroke-miterlimit="4" id="path1251" d="m-610.363317,-2145.659913l175.8228,0"/>
  <path stroke="#044464" fill="none" fill-rule="nonzero" stroke-width="10" stroke-linecap="round" stroke-linejoin="round" stroke-miterlimit="6.2" stroke-dashoffset="0" id="path1339" d="m153.959487,60.371286l0,111.307652l-122.710655,0l0,-158.149546l0,0l75.441617,0"/>
  <path stroke="#044464" fill="none" fill-rule="nonzero" stroke-width="10" stroke-linecap="round" stroke-linejoin="round" stroke-miterlimit="4" stroke-dashoffset="0" id="path1341" d="m152.243533,61.751236l-45.175534,0c-0.896,0 -1.617218,-0.714744 -1.617218,-1.602576l0,-44.767224c0,-0.887819 0.721219,-1.602576 1.617218,-1.602576l46.792765,46.369799c0,0.887832 -0.721331,1.602576 -1.617231,1.602576z"/>
  <path fill="none" fill-rule="nonzero" stroke="#000000" stroke-width="8.07283" stroke-linecap="round" stroke-linejoin="round" stroke-miterlimit="6.2" stroke-dashoffset="0" id="path1325" d="m-454.314406,-1444.030403l0,123.840679l-136.275468,0l0,-175.956889l0,0l83.781154,0"/>
  <path fill="none" fill-rule="nonzero" stroke="#000000" stroke-width="8.07283" stroke-linecap="round" stroke-linejoin="round" stroke-miterlimit="4" stroke-dashoffset="0" id="rect1297" d="m-456.128683,-1442.229244l-50.680152,0c-1.005169,0 -1.814277,-0.803324 -1.814277,-1.801182l0,-50.314994c0,-0.997846 0.809109,-1.801182 1.814277,-1.801182l52.494429,52.116176c0,0.997857 -0.809224,1.801182 -1.814277,1.801182z"/>
  <path fill="none" stroke="#000000" stroke-width="6.617693" stroke-linecap="round" stroke-linejoin="round" stroke-miterlimit="4" id="path1343" d="m-560.677267,-1381.206709l78.800267,0"/>
  <path fill="none" stroke="#000000" stroke-width="6.617693" stroke-linecap="round" stroke-linejoin="round" stroke-miterlimit="4" id="path1345" d="m-560.677267,-1410.162695l78.800267,0"/>
  <path fill="none" stroke="#000000" stroke-width="6.617693" stroke-linecap="round" stroke-linejoin="round" stroke-miterlimit="4" id="path1347" d="m-560.677267,-1352.250737l78.800267,0"/>
  <path fill="none" fill-rule="nonzero" stroke="#000000" stroke-width="9.260415" stroke-linejoin="round" stroke-miterlimit="4" stroke-dashoffset="0" id="rect1357" d="m-630.531922,-1867.368888c43.987,0 87.974,0 131.9609,0c14.6624,14.6623 29.3246,29.3246 43.9869,43.9869c0,43.987 0,87.974 0,131.961c-58.6493,0 -117.2985,0 -175.9478,0c0,-58.6493 0,-117.2986 0,-175.9479z"/>
  <rect fill="none" fill-rule="nonzero" stroke="#000000" stroke-width="9.260415" stroke-linejoin="round" stroke-miterlimit="4" stroke-dashoffset="0" y="-1867.368988" x="-578.896522" width="72.677277" id="rect1361" height="47.425125"/>
  <path fill="none" stroke="#000000" stroke-width="9.260415" stroke-linecap="round" stroke-linejoin="round" stroke-miterlimit="4" id="path1365" d="m-528.621422,-1851.632988l0,15.4954"/>
  <rect transform="matrix(1.1522276,0,0,1.1522276,2485.573,-1321.0163) " fill="none" fill-rule="nonzero" stroke="#000000" stroke-width="8.036967" stroke-linejoin="round" stroke-miterlimit="4" stroke-dashoffset="0" y="-383.038613" x="-2677.367275" width="98.601219" id="rect1363" height="61.570217"/>
  <path fill="none" stroke="#000000" stroke-width="8.036968" stroke-linecap="round" stroke-linejoin="round" stroke-miterlimit="4" id="path1367" d="m-505.147777,-1739.740195l-74.82013,0"/>
  <path fill="none" stroke="#000000" stroke-width="8.036968" stroke-linecap="round" stroke-linejoin="round" stroke-miterlimit="4" id="path1369" d="m-505.147777,-1714.044828l-74.82013,0"/>
  <path fill="none" fill-rule="nonzero" stroke="#000000" stroke-width="9.260416" stroke-linejoin="round" stroke-miterlimit="6.2" stroke-dashoffset="0" id="path1381" d="m1199.587522,-2252.592273l0,22.49361m-104.45723,0l0,-62.72064l0,0l64.21954,0"/>
  <path fill="none" fill-rule="nonzero" stroke="#000000" stroke-width="9.260416" stroke-linecap="round" stroke-linejoin="round" stroke-miterlimit="4" stroke-dashoffset="0" id="path1383" d="m1198.196852,-2251.202003l-38.8471,0c-0.77048,0 -1.39067,-0.62007 -1.39067,-1.39028l0,-38.83674c0,-0.77021 0.62019,-1.39028 1.39067,-1.39028l40.23777,40.22702c0,0.77021 -0.62029,1.39028 -1.39067,1.39028z"/>
  <path fill="none" stroke="#000000" stroke-width="9.260416" stroke-linecap="round" stroke-linejoin="round" stroke-miterlimit="4" id="path1410" d="m1206.599362,-2212.774883l12.75166,0"/>
  <path fill="none" fill-rule="nonzero" stroke="#000000" stroke-width="9.260416" stroke-linejoin="round" stroke-miterlimit="4" stroke-dashoffset="0" id="path1402" d="m1095.706282,-2164.499083l-36.32141,0l0,-64.50356l0,0l175.9479,0l0,64.50356l-33.49189,0"/>
  <path fill="none" stroke="#000000" stroke-width="9.260416" stroke-linecap="round" stroke-linejoin="round" stroke-miterlimit="4" id="path1385" d="m1117.188751,-2156.841197l60.34023,0"/>
  <path fill="none" stroke="#000000" stroke-width="9.260416" stroke-linecap="round" stroke-linejoin="round" stroke-miterlimit="4" id="path1389" d="m1117.188751,-2137.988747l60.34023,0"/>
  <rect fill="none" fill-rule="nonzero" stroke="#000000" stroke-width="9.260417" stroke-linejoin="round" stroke-miterlimit="4" stroke-dashoffset="0" y="-2177.958572" x="1094.291441" width="106.13478" id="rect1393" height="61.087173"/>
  <path fill="none" stroke="#000000" stroke-width="9.260416" stroke-linecap="round" stroke-linejoin="round" stroke-miterlimit="4" id="path1419" d="m-1886.288322,-561.238251l175.8543,-175.85436"/>
  <path fill="none" stroke="#000000" stroke-width="9.260416" stroke-linecap="round" stroke-linejoin="round" stroke-miterlimit="4" id="path1421" d="m-1886.288322,-737.092611l175.8543,175.85439"/>
  <ellipse fill="none" fill-rule="nonzero" stroke="#000000" stroke-width="9.260416" stroke-linecap="round" stroke-linejoin="round" stroke-miterlimit="4" stroke-dashoffset="0" transform="matrix(0.70704084,-0.70717272,0.70704084,0.70717272,0,0) " ry="56.435123" rx="57.371502" id="ellipse1423" cy="-2553.731222" cx="608.06273"/>
  <path fill="none" stroke="#000000" stroke-width="9.260416" stroke-linecap="round" stroke-linejoin="round" stroke-miterlimit="4" id="path1425" d="m-1256.643036,-2116.920916l-79.1058,-79.1204"/>
  <path fill="none" fill-rule="nonzero" stroke="#000000" stroke-width="9.260416" stroke-linecap="round" stroke-linejoin="round" stroke-miterlimit="6.2" stroke-dashoffset="0" id="path1455" d="m304.353462,-1849.053088l-35.14851,0l0,-18.3158l0,0l35.14851,0l0,18.3158z"/>
  <path fill="none" fill-rule="nonzero" stroke="#000000" stroke-width="9.260416" stroke-linecap="round" stroke-linejoin="round" stroke-miterlimit="6.2" stroke-dashoffset="0" id="path1451" d="m358.214356,-1691.420975l-142.8703,0l0,-157.63207l0,0l142.8703,0l0,157.63207z"/>
  <path fill="none" fill-rule="nonzero" stroke="#000000" stroke-width="9.260416" stroke-linecap="round" stroke-linejoin="round" stroke-miterlimit="6.2" stroke-dashoffset="0" id="path1457" d="m331.795546,-1836.450505l-90.03267,0l0,-6.88925l0,0l90.03267,0l0,6.88925z"/>
  <path fill="none" stroke="#000000" stroke-width="7.956882" stroke-linecap="round" stroke-linejoin="round" stroke-miterlimit="4" id="path1343-2" d="m247.283817,-1779.74205l79.654139,0"/>
  <path fill="none" stroke="#000000" stroke-width="7.956882" stroke-linecap="round" stroke-linejoin="round" stroke-miterlimit="4" id="path1345-2" d="m247.283817,-1808.373808l79.654139,0"/>
  <path fill="none" stroke="#000000" stroke-width="7.956882" stroke-linecap="round" stroke-linejoin="round" stroke-miterlimit="4" id="path1347-0" d="m247.283817,-1751.110303l79.654139,0"/>
  <path fill="none" stroke="#000000" stroke-width="7.956882" stroke-linecap="round" stroke-linejoin="round" stroke-miterlimit="4" id="path1347-0-7" d="m246.620393,-1722.478545l79.654139,0"/>
  <ellipse fill="none" fill-rule="nonzero" stroke="#000000" stroke-width="9.261107" stroke-linecap="round" stroke-linejoin="round" stroke-miterlimit="4" stroke-dashoffset="0" transform="matrix(0.50750515,-0.86164873,0.87029421,0.49253221,0,0) " ry="23.822092" rx="23.976822" id="ellipse1490" cy="-1944.41163" cx="559.0684"/>
  <path fill="none" stroke="#000000" stroke-width="9.260416" stroke-linecap="round" stroke-linejoin="round" stroke-miterlimit="4" id="path1492" d="m-1355.474236,-1408.168432l-32.84212,-18.58659"/>
  <ellipse fill="none" fill-rule="nonzero" stroke="#000000" stroke-width="9.261107" stroke-linecap="round" stroke-linejoin="round" stroke-miterlimit="4" stroke-dashoffset="0" transform="matrix(0.50750515,0.86164873,0.87029421,-0.49253221,0,0) " ry="23.822092" rx="23.976822" id="ellipse1494" cy="-514.892556" cx="-1892.339701"/>
  <path fill="none" stroke="#000000" stroke-width="9.260416" stroke-linecap="round" stroke-linejoin="round" stroke-miterlimit="4" id="path1496" d="m-1355.474236,-1408.168432l-32.84212,18.58657"/>
  <path fill="none" stroke="#000000" stroke-width="9.260416" stroke-linecap="round" stroke-linejoin="round" stroke-miterlimit="4" id="path1498" d="m-1355.466516,-1408.165192l98.805,-29.77729"/>
  <path fill="none" stroke="#000000" stroke-width="9.260416" stroke-linecap="round" stroke-linejoin="round" stroke-miterlimit="4" id="path1500" d="m-1355.466516,-1408.165192l98.805,29.7773"/>
  <path fill="none" stroke="#000000" stroke-width="22.996563" stroke-linecap="round" stroke-linejoin="round" stroke-miterlimit="4" id="path1537" d="m-2258.484036,-707.81686l-0.00004,-29.259502"/>
  <path fill="none" stroke="#000000" stroke-width="22.996563" stroke-linecap="round" stroke-linejoin="round" stroke-miterlimit="4" id="path1506" d="m-2258.483915,-561.254591l-0.000081,-99.398869"/>
  <circle transform="matrix(1.5226963,0,0,1.5212372,447.42158,-646.11163) " fill="none" fill-rule="nonzero" stroke="#000000" stroke-width="6.084507" stroke-linecap="round" stroke-linejoin="bevel" stroke-miterlimit="4" stroke-dashoffset="0" r="0" id="path1512" cy="-25.060956" cx="-1777.048834"/>
  <path fill="none" stroke="#000000" stroke-width="22.996563" stroke-linecap="round" stroke-linejoin="round" stroke-miterlimit="4" id="path1530" d="m-2194.116605,-641.033407l-0.00004,-96.042955"/>
  <path fill="none" stroke="#000000" stroke-width="22.996563" stroke-linecap="round" stroke-linejoin="round" stroke-miterlimit="4" id="path1510" d="m-2194.116484,-561.254591l-0.000081,-32.615416"/>
  <circle transform="matrix(1.5226963,0,0,1.5212372,449.92948,-646.11163) " fill="none" fill-rule="nonzero" stroke="#000000" stroke-width="6.084507" stroke-linecap="round" stroke-linejoin="bevel" stroke-miterlimit="4" stroke-dashoffset="0" r="0" id="circle1514" cy="18.839524" cx="-1736.423834"/>
  <path fill="none" stroke="#000000" stroke-width="22.996563" stroke-linecap="round" stroke-linejoin="round" stroke-miterlimit="4" id="path1523" d="m-2129.749138,-687.109065l0,-49.967294"/>
  <path fill="none" stroke="#000000" stroke-width="22.996563" stroke-linecap="round" stroke-linejoin="round" stroke-miterlimit="4" id="path1508" d="m-2129.748976,-561.254588l0,-78.691318"/>
  <circle transform="matrix(1.5226963,0,0,1.5212372,405.22898,-644.48531) " fill="none" fill-rule="nonzero" stroke="#000000" stroke-width="6.084507" stroke-linecap="round" stroke-linejoin="bevel" stroke-miterlimit="4" stroke-dashoffset="0" r="0" id="circle1516" cy="-12.517626" cx="-1664.795634"/>
  <rect fill="none" fill-rule="nonzero" stroke="#000000" stroke-width="9.260416" stroke-linecap="round" stroke-linejoin="round" stroke-miterlimit="6.2" stroke-dashoffset="0" y="-1867.37127" x="-2246.170728" width="116.03008" id="rect989-0" height="175.95261"/>
  <path fill="none" stroke="#000000" stroke-width="9.260416" stroke-linecap="round" stroke-linejoin="round" stroke-miterlimit="4" id="path993-1" d="m-2196.161828,-1779.39497l132.0424,0"/>
  <path fill="none" stroke="#000000" stroke-width="9.260416" stroke-linecap="round" stroke-linejoin="round" stroke-miterlimit="4" id="path995-0" d="m-2064.119528,-1779.39497l-38.8891,38.0512"/>
  <path fill="none" stroke="#000000" stroke-width="9.260416" stroke-linecap="round" stroke-linejoin="round" stroke-miterlimit="4" id="path997-6" d="m-2064.119528,-1779.39497l-38.8891,-38.0511"/>
  <rect fill="none" fill-rule="nonzero" stroke="#000000" stroke-width="9.260416" stroke-linecap="round" stroke-linejoin="round" stroke-miterlimit="6.2" stroke-dashoffset="0" y="-1867.371248" x="-1866.525016" width="116.03008" id="rect2604" height="175.95261"/>
  <path fill="none" stroke="#000000" stroke-width="9.260416" stroke-linecap="round" stroke-linejoin="round" stroke-miterlimit="4" id="path2606" d="m-1684.473716,-1779.395048l-132.0424,0"/>
  <path fill="none" stroke="#000000" stroke-width="9.260416" stroke-linecap="round" stroke-linejoin="round" stroke-miterlimit="4" id="path2608" d="m-1816.516016,-1779.395048l38.8891,38.0512"/>
  <path fill="none" stroke="#000000" stroke-width="9.260416" stroke-linecap="round" stroke-linejoin="round" stroke-miterlimit="4" id="path2610" d="m-1816.516016,-1779.395048l38.8891,-38.0511"/>
  <path fill="none" fill-rule="nonzero" stroke="#000000" stroke-width="9.260415" stroke-linecap="round" stroke-linejoin="round" stroke-miterlimit="6.2" stroke-dashoffset="0" id="rect1147-4" d="m-2472.024017,-1372.403798l-0.00027,50.63486c0,1.26358 -0.84285,2.28081 -1.89013,2.28081l-172.17305,0c-1.04714,0 -1.89013,-1.01723 -1.89013,-2.28081l0,-50.63486"/>
  <path fill="none" stroke="#000000" stroke-width="9.260416" stroke-linecap="round" stroke-linejoin="round" stroke-miterlimit="4" id="path1149-7" d="m-2560.000782,-1345.947818l0,-150.83497"/>
  <path fill="none" stroke="#000000" stroke-width="9.260416" stroke-linecap="round" stroke-linejoin="round" stroke-miterlimit="4" id="path1151-5" d="m-2560.000782,-1496.782698l-43.48169,44.42384"/>
  <path fill="none" stroke="#000000" stroke-width="9.260416" stroke-linecap="round" stroke-linejoin="round" stroke-miterlimit="4" id="path1153-4" d="m-2560.000782,-1496.782698l43.4817,44.42384"/>
  <path fill="none" stroke="#000000" stroke-width="9.260416" stroke-linecap="round" stroke-linejoin="round" stroke-miterlimit="4" id="path1245-9" d="m536.371517,-1001.198191l175.7822,0"/>
  <path fill="none" stroke="#000000" stroke-width="9.260416" stroke-linecap="round" stroke-linejoin="round" stroke-miterlimit="4" id="path1245" d="m157.113061,-1020.762418l175.78218,0"/>
  <path fill="none" stroke="#000000" stroke-width="9.260416" stroke-linecap="round" stroke-linejoin="round" stroke-miterlimit="4" id="path1709" d="m245.004151,-1108.653508l0,175.78218"/>
  <ellipse fill="none" fill-rule="nonzero" stroke="#000000" stroke-width="9.260416" stroke-linecap="round" stroke-linejoin="round" stroke-miterlimit="4" stroke-dashoffset="0" transform="matrix(0.70704084,-0.70717272,0.70704084,0.70717272,0,0) " ry="56.435123" rx="57.371502" id="ellipse1717" cy="-3413.252838" cx="-251.458912"/>
  <path fill="none" stroke="#000000" stroke-width="9.260416" stroke-linecap="round" stroke-linejoin="round" stroke-miterlimit="4" id="path1719" d="m-2472.076866,-2116.920969l-79.1057,-79.1204"/>
  <path fill="none" stroke="#000000" stroke-width="9.260416" stroke-linecap="round" stroke-linejoin="round" stroke-miterlimit="4" id="path1721" d="m-2629.150566,-2235.934269l76.0993,0"/>
  <path fill="none" stroke="#000000" stroke-width="9.260416" stroke-linecap="round" stroke-linejoin="round" stroke-miterlimit="4" id="path1723" d="m-2591.100866,-2273.983969l0,76.0993"/>
  <ellipse fill="none" fill-rule="nonzero" stroke="#000000" stroke-width="9.260416" stroke-linecap="round" stroke-linejoin="round" stroke-miterlimit="4" stroke-dashoffset="0" transform="matrix(0.70704084,-0.70717272,0.70704084,0.70717272,0,0) " ry="56.435123" rx="57.371502" id="ellipse1725" cy="-2874.64197" cx="287.151861"/>
  <path fill="none" stroke="#000000" stroke-width="9.260416" stroke-linecap="round" stroke-linejoin="round" stroke-miterlimit="4" id="path1727" d="m-1710.437184,-2116.920965l-79.1057,-79.1203"/>
  <path fill="none" stroke="#000000" stroke-width="9.260416" stroke-linecap="round" stroke-linejoin="round" stroke-miterlimit="4" id="path1729" d="m-1867.510884,-2235.934265l76.0993,0"/>
  <text font-style="normal" font-weight="normal" font-size="64.968384px" font-family="sans-serif" fill="#000000" stroke-width="0.264583" y="-2212.237463" xml:space="preserve" x="-2270.409632" id="text1449"/>
  <ellipse fill="none" fill-rule="nonzero" stroke="#000000" stroke-width="9.260416" stroke-linecap="round" stroke-linejoin="round" stroke-miterlimit="4" stroke-dashoffset="0" transform="matrix(0.70704084,-0.70717272,0.70704084,0.70717272,0,0) " ry="56.435123" rx="57.371502" id="ellipse1731" cy="-3154.509501" cx="7.284405"/>
  <path fill="none" stroke="#000000" stroke-width="9.260416" stroke-linecap="round" stroke-linejoin="round" stroke-miterlimit="4" id="path1733" d="m-2106.192632,-2116.920963l-79.1058,-79.1204"/>
  <rect fill="none" fill-rule="nonzero" stroke="#000000" stroke-width="9.260416" stroke-linecap="round" stroke-linejoin="round" stroke-miterlimit="6.2" stroke-dashoffset="0" y="-715.138734" x="-2647.974697" width="153.94724" id="rect931" height="153.94724"/>
  <path fill="none" fill-rule="nonzero" stroke="#000000" stroke-width="9.260416" stroke-linecap="round" stroke-linejoin="round" stroke-miterlimit="6.2" stroke-dashoffset="0" id="path1745" d="m-2625.974037,-715.138684l0,-22.00073l0,0l153.94724,0l0,153.94724l-22.00073,0"/>
  <path fill="none" stroke="#000000" stroke-width="9.260416" stroke-linecap="round" stroke-linejoin="round" stroke-miterlimit="4" id="path993-9" d="m324.531364,-1342.516113l-71.21026,0c-61.03471,0 -61.03471,-93.20769 5.20191,-93.20769l90.48202,0l35.06893,0"/>
  <path fill="none" stroke="#000000" stroke-width="9.260416" stroke-linecap="round" stroke-linejoin="round" stroke-miterlimit="4" id="path995-1" d="m384.073964,-1435.723803l-38.8891,38.05115"/>
  <path fill="none" stroke="#000000" stroke-width="9.260416" stroke-linecap="round" stroke-linejoin="round" stroke-miterlimit="4" id="path997-1" d="m384.073964,-1435.723803l-38.8891,-38.05115"/>
  <path fill="none" stroke="#000000" stroke-width="9.260416" stroke-linecap="round" stroke-linejoin="round" stroke-miterlimit="4" id="path1801" d="m-159.481581,-1342.516224l71.21026,0c61.0347,0 61.0347,-93.20769 -5.20191,-93.20769l-90.48202,0l-35.06893,0"/>
  <path fill="none" stroke="#000000" stroke-width="9.260416" stroke-linecap="round" stroke-linejoin="round" stroke-miterlimit="4" id="path1803" d="m-219.024181,-1435.723914l38.8891,38.05115"/>
  <path fill="none" stroke="#000000" stroke-width="9.260416" stroke-linecap="round" stroke-linejoin="round" stroke-miterlimit="4" id="path1805" d="m-219.024181,-1435.723914l38.8891,-38.05115"/>
  <path fill="none" stroke="#000000" stroke-width="9.260416" stroke-linecap="round" stroke-linejoin="round" stroke-miterlimit="4" id="path1803-1" d="m-1380.450717,-985.026404l-95.20357,87.92836"/>
  <path fill="none" stroke="#000000" stroke-width="9.260416" stroke-linecap="round" stroke-linejoin="round" stroke-miterlimit="4" id="path1805-1" d="m-1380.450717,-985.026404l-95.20357,-87.92835"/>
  <path fill="none" stroke="#000000" stroke-width="9.260416" stroke-linecap="round" stroke-linejoin="round" stroke-miterlimit="4" id="path1803-1-2" d="m-2607.602603,-1001.198212l95.20356,87.92835"/>
  <path fill="none" stroke="#000000" stroke-width="9.260416" stroke-linecap="round" stroke-linejoin="round" stroke-miterlimit="4" id="path1805-1-8" d="m-2607.602603,-1001.198212l95.20356,-87.92836"/>
  <path fill="none" stroke="#000000" stroke-width="9.027246" stroke-linecap="round" stroke-linejoin="round" stroke-miterlimit="4" id="path1803-14" d="m-221.343577,-1048.496815l39.900887,39.02685"/>
  <path fill="none" stroke="#000000" stroke-width="9.027246" stroke-linecap="round" stroke-linejoin="round" stroke-miterlimit="4" id="path1805-8" d="m-221.343577,-1048.496815l39.900887,-39.02685"/>
  <path fill="none" stroke="#000000" stroke-width="9.260416" stroke-miterlimit="4" id="path1884" d="m-221.391585,-980.058941c0,27.68081 16.68063,52.63599 42.26373,63.22898c25.58311,10.593 55.03053,4.73768 74.61101,-14.83561c19.58046,-19.57329 25.43792,-49.00993 14.84104,-74.58368c-10.59687,-25.57373 -35.13,-42.24554 -62.82095,-42.24554l-68.84199,0.003"/>
  <path fill="none" fill-rule="nonzero" stroke="#000000" stroke-width="9.260416" stroke-linecap="round" stroke-linejoin="round" stroke-miterlimit="4" stroke-dashoffset="0" id="path1891" d="m-1270.799693,-661.269701l-175.9495,0l90.0418,-75.8658l85.9077,75.8658zm-106.8185,100.0737l-46.5326,0l0,-100.0739l129.1794,0l0,100.0739l-46.5326,0m-36.1145,-0.1181l0,-48.0593l0,0l36.1147,0l0,48.0593"/>
  <path fill="none" stroke="#000000" stroke-width="9.027246" stroke-linecap="round" stroke-linejoin="round" stroke-miterlimit="4" id="path1915" d="m-520.548032,-1082.363527l-39.900887,39.02685"/>
  <path fill="none" stroke="#000000" stroke-width="9.027246" stroke-linecap="round" stroke-linejoin="round" stroke-miterlimit="4" id="path1917" d="m-520.548032,-1082.363527l-39.900887,-39.02685"/>
  <path fill="none" stroke="#000000" stroke-width="9.260416" stroke-miterlimit="4" id="path1921" d="m-520.500029,-1013.92564c0,27.68081 -16.68063,52.63599 -42.26373,63.22898c-25.58311,10.593 -55.03053,4.73768 -74.61101,-14.83561c-19.58046,-19.57329 -25.43792,-49.00993 -14.84104,-74.58368c10.59687,-25.57373 35.13,-42.24554 62.82095,-42.24554l68.84199,0.003"/>
  <circle fill="none" fill-rule="nonzero" stroke="#000000" stroke-width="9.260416" stroke-linecap="round" stroke-linejoin="round" stroke-miterlimit="4" stroke-dashoffset="0" transform="rotate(45 3.226104736328129,-934.8318481445311) " r="0" id="path1934" cy="-2040.000948" cx="-687.675265"/>
  <circle fill="none" fill-rule="nonzero" stroke="#000000" stroke-width="9.260416" stroke-linecap="round" stroke-linejoin="round" stroke-miterlimit="4" stroke-dashoffset="0" transform="rotate(45 3.226104736328129,-934.8318481445311) " r="0" id="circle1936" cy="-2040.000948" cx="-687.675265"/>
  <path fill="none" stroke="#000000" stroke-width="9.260416" stroke-linecap="round" stroke-linejoin="round" stroke-miterlimit="4" id="path1962" d="m338.256135,-2162.746948l20.04987,20.0499"/>
  <path fill="none" stroke="#000000" stroke-width="9.260416" stroke-linecap="round" stroke-linejoin="round" stroke-miterlimit="4" id="path1940" d="m234.009245,-2266.993848l20.04987,20.0499"/>
  <path fill="none" stroke="#000000" stroke-width="9.260416" stroke-linecap="round" stroke-linejoin="round" stroke-miterlimit="4" id="path1955" d="m254.059105,-2162.746948l-20.04986,20.0499"/>
  <path fill="none" stroke="#000000" stroke-width="9.260416" stroke-linecap="round" stroke-linejoin="round" stroke-miterlimit="4" id="path1942" d="m358.306005,-2266.993848l-20.04987,20.0499"/>
  <ellipse fill="none" fill-rule="nonzero" stroke="#000000" stroke-width="9.260416" stroke-linecap="round" stroke-linejoin="round" stroke-miterlimit="4" stroke-dashoffset="0" transform="matrix(-0.000096138809,-1,1,0.000090481721,0,0) " ry="31.634565" rx="31.198929" id="ellipse1423-3" cy="646.35169" cx="1408.226896"/>
  <path fill="none" stroke="#000000" stroke-width="9.260416" stroke-linecap="round" stroke-linejoin="round" stroke-miterlimit="4" id="path1425-8" d="m790.467428,-1408.172447l-112.58661,-0.006"/>
  <path fill="none" stroke="#000000" stroke-width="9.260416" stroke-linecap="round" stroke-linejoin="round" stroke-miterlimit="4" id="path1992" d="m733.808158,-1382.093637l0.006,-26.05829"/>
  <path fill="none" stroke="#000000" stroke-width="9.260416" stroke-linecap="round" stroke-linejoin="round" stroke-miterlimit="4" id="path1994" d="m751.735508,-1386.608407l0.006,-21.57197"/>
  <path fill="none" stroke="#000000" stroke-width="9.260416" stroke-linecap="round" stroke-linejoin="round" stroke-miterlimit="4" id="path1998" d="m769.662858,-1382.115547l0.006,-26.0583"/>
  <path fill="none" fill-rule="nonzero" stroke="#000000" stroke-width="14.841314" stroke-linecap="round" stroke-linejoin="round" stroke-miterlimit="4" stroke-dashoffset="0" id="path2006" d="m1069.281294,-1084.779326l23.921777,59.511785l64.046961,4.338459l-49.262492,41.118753l15.661422,62.193097l-54.367668,-34.098988l-54.367674,34.098988l15.661429,-62.193097l-49.262492,-41.118759l64.046961,-4.338452l23.921777,-59.511785z"/>
  <ellipse fill="none" fill-rule="nonzero" stroke="#000000" stroke-width="9.261107" stroke-linecap="round" stroke-linejoin="round" stroke-miterlimit="4" stroke-dashoffset="0" transform="matrix(0.50750515,-0.86164873,0.87029421,0.49253221,0,0) " ry="23.822092" rx="23.976822" id="ellipse1490-5" cy="153.211332" cx="1796.435156"/>
  <ellipse fill="none" fill-rule="nonzero" stroke="#000000" stroke-width="9.261107" stroke-linecap="round" stroke-linejoin="round" stroke-miterlimit="4" stroke-dashoffset="0" transform="matrix(0.50750515,-0.86164873,0.87029421,0.49253221,0,0) " ry="23.822092" rx="23.976822" id="ellipse2023" cy="218.451812" cx="1684.557586"/>
  <ellipse fill="none" fill-rule="nonzero" stroke="#000000" stroke-width="9.261107" stroke-linecap="round" stroke-linejoin="round" stroke-miterlimit="4" stroke-dashoffset="0" transform="matrix(0.50750515,-0.86164873,0.87029421,0.49253221,0,0) " ry="23.822092" rx="23.976822" id="ellipse2025" cy="295.998682" cx="1803.469636"/>
  <path fill="none" stroke="#000000" stroke-width="9.260416" stroke-linecap="round" stroke-linejoin="round" stroke-miterlimit="4" id="path2042" d="m1070.603034,-1459.583016l76.63311,38.52491"/>
  <path fill="none" stroke="#000000" stroke-width="9.260416" stroke-linecap="round" stroke-linejoin="round" stroke-miterlimit="4" id="path2046" d="m1066.588124,-1354.735476l84.73882,-42.59981"/>
  <path transform="rotate(90 -2358.6542968750005,-1311.2117919921877) " fill="none" stroke="#000000" stroke-width="9.260416" stroke-linecap="round" stroke-linejoin="round" stroke-miterlimit="4" id="path2048" d="m-2096.242559,-1475.749553l95.20357,-87.92835"/>
  <path transform="rotate(90 -2358.6542968750005,-1311.2117919921877) " fill="none" stroke="#000000" stroke-width="9.260416" stroke-linecap="round" stroke-linejoin="round" stroke-miterlimit="4" id="path2050" d="m-2096.242549,-1475.749553l95.20356,87.92836"/>
  <path fill="none" stroke="#000000" stroke-width="9.260416" stroke-linecap="round" stroke-linejoin="round" stroke-miterlimit="4" id="path2056" d="m-1829.170523,-955.385221l87.92835,-95.20357"/>
  <path fill="none" stroke="#000000" stroke-width="9.260416" stroke-linecap="round" stroke-linejoin="round" stroke-miterlimit="4" id="path2058" d="m-1829.170523,-955.385231l-87.92836,-95.20356"/>
  <path fill="none" stroke="#000000" stroke-width="9.260416" stroke-linecap="round" stroke-linejoin="round" stroke-miterlimit="4" id="path2264-2" d="m-964.675418,-649.165452l95.20356,-62.4843"/>
  <path fill="none" stroke="#000000" stroke-width="9.260416" stroke-linecap="round" stroke-linejoin="round" stroke-miterlimit="4" id="path2270-3" d="m-964.675418,-649.165452l95.20356,62.4843"/>
  <path fill="none" stroke="#000000" stroke-width="9.260416" stroke-linecap="round" stroke-miterlimit="4" id="path2268-6" d="m-973.984738,-737.093825l0,175.8567"/>
  <path fill="none" stroke="#000000" stroke-width="9.260416" stroke-linecap="round" stroke-linejoin="round" stroke-miterlimit="4" id="path2264" d="m-512.842233,-649.165437l-95.203559,-62.484299"/>
  <path fill="none" stroke="#000000" stroke-width="9.260416" stroke-linecap="round" stroke-linejoin="round" stroke-miterlimit="4" id="path2270" d="m-512.842233,-649.165437l-95.203559,62.484299"/>
  <path fill="none" stroke="#000000" stroke-width="9.260416" stroke-linecap="round" stroke-miterlimit="4" id="path2268" d="m-503.532853,-737.093782l0,175.85669"/>
  <ellipse fill="none" fill-rule="nonzero" stroke="#000000" stroke-width="9.260416" stroke-linecap="round" stroke-linejoin="round" stroke-miterlimit="4" stroke-dashoffset="0" ry="41.448803" rx="41.306015" id="circle2373" cy="-695.689743" cx="-166.923311"/>
  <path fill="none" stroke="#000000" stroke-width="9.260416" stroke-linecap="round" stroke-linejoin="round" stroke-miterlimit="4" id="path2385" d="m-254.629911,-561.259753l175.4132,0m-175.4132,0a87.97433,86.2569 0 0 1 -0.2678,-6.72429a87.97433,86.2569 0 0 1 87.9743,-86.2569a87.97433,86.2569 0 0 1 87.9744,86.2569l0,0a87.97433,86.2569 0 0 1 -0.2679,6.72598"/>
  <path fill="none" fill-rule="nonzero" stroke="#000000" stroke-width="9.260416" stroke-linecap="round" stroke-linejoin="round" stroke-miterlimit="4" stroke-dashoffset="0" id="path2510" d="m312.116977,-676.977551c-5.379,-20.22358 -23.8631,-34.31947 -45.0035,-34.31947c-1.6883,0 -3.3754,0.0908 -5.0537,0.27224m-39.8743,34.0132c-0.5235,-0.0196 -1.0473,-0.0294 -1.5711,-0.0294c-22.901,-0.00001 -41.4659,18.36411 -41.4659,41.01743c0,9.84637 2.1625,21.35929 10.0738,26.79863c42.6468,29.3213 113.1667,29.32745 155.8093,0.00002c7.9097,-5.43989 10.0648,-16.95225 10.0648,-26.79862c0,-22.65332 -18.5649,-41.01744 -41.4659,-41.01743c-0.5238,0 -1.0476,0.01 -1.5711,0.0294m-89.9315,0.034c5.379,-20.22358 23.8631,-34.31947 45.0035,-34.31947c1.6883,0 3.3754,0.0908 5.0537,0.27224"/>
  <rect fill="none" fill-rule="nonzero" stroke="#000000" stroke-width="9.260416" stroke-linecap="round" stroke-linejoin="round" stroke-miterlimit="4" stroke-dashoffset="0" y="-1867.368991" x="-185.754033" width="175.94791" id="rect2519" height="175.94791"/>
  <rect fill="none" fill-rule="nonzero" stroke="#000000" stroke-width="9.260416" stroke-linecap="round" stroke-linejoin="round" stroke-miterlimit="4" stroke-dashoffset="0" y="-1820.934615" x="-164.45507" width="25.929165" id="rect2525" height="25.929165"/>
  <rect fill="none" fill-rule="nonzero" stroke="#000000" stroke-width="9.260416" stroke-linecap="round" stroke-linejoin="round" stroke-miterlimit="4" stroke-dashoffset="0" y="-1820.934615" x="-110.74465" width="25.929165" id="rect2527" height="25.929165"/>
  <rect fill="none" fill-rule="nonzero" stroke="#000000" stroke-width="9.260416" stroke-linecap="round" stroke-linejoin="round" stroke-miterlimit="4" stroke-dashoffset="0" y="-1820.934615" x="-57.03423" width="25.929165" id="rect2529" height="25.929165"/>
  <rect fill="none" fill-rule="nonzero" stroke="#000000" stroke-width="9.260416" stroke-linecap="round" stroke-linejoin="round" stroke-miterlimit="4" stroke-dashoffset="0" y="-1763.784625" x="-164.45507" width="25.929165" id="rect2531" height="25.929165"/>
  <rect fill="none" fill-rule="nonzero" stroke="#000000" stroke-width="9.260416" stroke-linecap="round" stroke-linejoin="round" stroke-miterlimit="4" stroke-dashoffset="0" y="-1763.784625" x="-110.74465" width="25.929165" id="rect2533" height="25.929165"/>
  <rect fill="none" fill-rule="nonzero" stroke="#000000" stroke-width="9.260416" stroke-linecap="round" stroke-linejoin="round" stroke-miterlimit="4" stroke-dashoffset="0" y="-1763.784625" x="-57.03423" width="25.929165" id="rect2535" height="25.929165"/>
  <rect fill="none" fill-rule="nonzero" stroke="#000000" stroke-width="9.260416" stroke-linecap="round" stroke-linejoin="round" stroke-miterlimit="4" stroke-dashoffset="0" y="-1849.066691" x="-185.754033" width="175.94791" id="rect2545" height="139.34364"/>
  <rect fill="none" fill-rule="nonzero" stroke="#000000" stroke-width="9.260416" stroke-linecap="round" stroke-linejoin="round" stroke-miterlimit="6.2" stroke-dashoffset="0" y="-1867.371306" x="-1451.745006" width="116.03008" id="rect989-0-8" height="175.95261"/>
  <path fill="none" stroke="#000000" stroke-width="9.260416" stroke-linecap="round" stroke-linejoin="round" stroke-miterlimit="4" id="path993-1-6" d="m-1517.766206,-1779.395006l132.0424,0"/>
  <path fill="none" stroke="#000000" stroke-width="9.260416" stroke-linecap="round" stroke-linejoin="round" stroke-miterlimit="4" id="path995-0-7" d="m-1385.723906,-1779.395006l-38.8891,38.05119"/>
  <path fill="none" stroke="#000000" stroke-width="9.260416" stroke-linecap="round" stroke-linejoin="round" stroke-miterlimit="4" id="path997-6-6" d="m-1385.723906,-1779.395006l-38.8891,-38.0511"/>
  <rect fill="none" fill-rule="nonzero" stroke="#000000" stroke-width="9.260416" stroke-linecap="round" stroke-linejoin="round" stroke-miterlimit="6.2" stroke-dashoffset="0" y="-1867.371271" x="-1046.403447" width="116.03008" id="rect2589" height="175.95261"/>
  <path fill="none" stroke="#000000" stroke-width="9.260416" stroke-linecap="round" stroke-linejoin="round" stroke-miterlimit="4" id="path2591" d="m-980.382147,-1779.395071l-132.0424,0"/>
  <path fill="none" stroke="#000000" stroke-width="9.260416" stroke-linecap="round" stroke-linejoin="round" stroke-miterlimit="4" id="path2593" d="m-1112.424447,-1779.395071l38.8891,38.0512"/>
  <path fill="none" stroke="#000000" stroke-width="9.260416" stroke-linecap="round" stroke-linejoin="round" stroke-miterlimit="4" id="path2595" d="m-1112.424447,-1779.395071l38.8891,-38.0511"/>
  <path fill="none" stroke="#000000" stroke-width="9.260416" stroke-linecap="round" stroke-linejoin="round" stroke-miterlimit="4" id="path2325" d="m623.332505,-649.165397l99.0598,0"/>
  <path fill="none" stroke="#000000" stroke-width="9.260416" stroke-linecap="round" stroke-linejoin="round" stroke-miterlimit="4" id="path2327" d="m623.332505,-708.350897l99.0598,0"/>
  <path fill="none" stroke="#000000" stroke-width="9.260416" stroke-linecap="round" stroke-linejoin="round" stroke-miterlimit="4" id="path2329" d="m623.332505,-589.980007l99.0598,0"/>
  <circle fill="#000000" fill-rule="nonzero" stroke-width="9.260416" stroke-linecap="round" stroke-linejoin="bevel" stroke-miterlimit="4" stroke-dashoffset="0" r="0" id="path1755" cy="-708.350887" cx="604.175795"/>
  <circle fill="#000000" fill-rule="nonzero" stroke-width="9.260416" stroke-linecap="round" stroke-linejoin="bevel" stroke-miterlimit="4" stroke-dashoffset="0" r="0" id="path1755-5" cy="-649.165437" cx="604.175795"/>
  <circle fill="#000000" fill-rule="nonzero" stroke-width="9.260416" stroke-linecap="round" stroke-linejoin="bevel" stroke-miterlimit="4" stroke-dashoffset="0" r="0" id="path1755-2" cy="-589.980007" cx="604.175795"/>
  <path fill="none" stroke="#000000" stroke-width="9.260416" stroke-linecap="round" stroke-linejoin="round" stroke-miterlimit="4" id="path2653" d="m546.562775,-649.165397l38.45635,0"/>
  <path fill="none" stroke="#000000" stroke-width="9.260416" stroke-linecap="round" stroke-linejoin="round" stroke-miterlimit="4" id="path2655" d="m546.562775,-708.350897l38.45635,0"/>
  <path fill="none" stroke="#000000" stroke-width="9.260416" stroke-linecap="round" stroke-linejoin="round" stroke-miterlimit="4" id="path2657" d="m546.562775,-589.980007l38.45635,0"/>
  <path fill="none" stroke="#000000" stroke-width="9.260416" stroke-linecap="round" stroke-linejoin="round" stroke-miterlimit="4" id="path2662" d="m-2550.331193,-1828.398291c-7.0159,-7.7603 -14.0319,-15.5207 -21.0478,-23.281c-11.7868,0 -23.5737,0 -35.3605,0m-32.9111,23.281c7.0159,-7.7603 14.0319,-15.5207 21.0478,-23.281c11.7868,0 23.5737,0 35.3605,0m111.2154,144.5691c-58.6493,0 -117.2986,0 -175.9479,0c0,-40.4294 0,-80.8587 0,-121.2881c58.6493,0 117.2986,0 175.9479,0c0,40.4294 0,80.8587 0,121.2881z"/>
  <rect fill="none" fill-rule="nonzero" stroke="#000000" stroke-width="9.260415" stroke-linecap="round" stroke-linejoin="round" stroke-miterlimit="4" stroke-dashoffset="0" y="-1832.187091" x="988.493347" width="175.94792" id="rect2666" height="105.58412"/>
  <path fill="none" fill-rule="nonzero" stroke="#000000" stroke-width="9.260416" stroke-linecap="round" stroke-linejoin="round" stroke-miterlimit="4" stroke-dashoffset="0" id="path2668" d="m1164.441287,-1832.187091l-175.96193,-0.3367l87.69092,78.011l88.27101,-77.6743z"/>
  <path fill="none" fill-rule="nonzero" stroke="#000000" stroke-width="9.260416" stroke-linecap="round" stroke-linejoin="round" stroke-miterlimit="4" stroke-dashoffset="0" id="path2671" d="m1048.018437,-1779.232791l-59.539,52.9667l175.96185,-0.3369l-59.79582,-52.6174l-28.46131,25.0444l-28.16572,-25.0568z"/>
  <path fill="none" stroke="#000000" stroke-width="9.260416" stroke-miterlimit="4" id="path2677" d="m-941.634393,-2138.878991l0,-133.0631l-42.6218,0l0,155.0684l61.8115,0l0,-175.9433l-83.0773,0l0,153.938"/>
  <path fill="none" fill-rule="nonzero" stroke="#000000" stroke-width="9.260416" stroke-linecap="round" stroke-linejoin="round" stroke-miterlimit="4" stroke-dashoffset="0" id="path2696" d="m977.481766,-656.303063a150.88508,154.11206 0 0 1 50.68894,-8.95671a150.88508,154.11206 0 0 1 50.68635,8.95576"/>
  <path fill="none" fill-rule="nonzero" stroke="#000000" stroke-width="9.260416" stroke-linecap="round" stroke-linejoin="round" stroke-miterlimit="4" stroke-dashoffset="0" id="circle2698" d="m958.823196,-689.279693a187.68634,191.70036 0 0 1 69.35474,-13.56839a187.68634,191.70036 0 0 1 69.33769,13.56145"/>
  <path fill="none" fill-rule="nonzero" stroke="#000000" stroke-width="9.260416" stroke-linecap="round" stroke-linejoin="round" stroke-miterlimit="4" stroke-dashoffset="0" id="circle2700" d="m940.257326,-722.128073a224.48756,229.28865 0 0 1 87.90085,-18.30833a224.48756,229.28865 0 0 1 87.92332,18.3181"/>
  <ellipse fill="none" fill-rule="nonzero" stroke="#000000" stroke-width="9.260416" stroke-linecap="round" stroke-linejoin="round" stroke-miterlimit="4" stroke-dashoffset="0" ry="18.7672" rx="18.761122" id="path2723" cy="-614.605273" cx="1028.169426"/>
 </g>
</svg>