<svg width="64" height="64" xmlns="http://www.w3.org/2000/svg">

 <g>
  <title>background</title>
  <rect fill="none" id="canvas_background" height="402" width="582" y="-1" x="-1"/>
 </g>
 <g>
  <title>Layer 1</title>
  <path stroke="null" id="svg_8" fill="#044464" d="m31.999999,18.273494l-0.589354,0l-24.143712,0c-1.950379,0 -3.533295,1.502357 -3.533295,3.423056l0,31.365767c0,1.920699 1.582916,3.479589 3.533295,3.479589l49.466131,0c1.950379,0 3.533295,-1.55889 3.533295,-3.479589l0,-27.831059l0,-3.534708l0,-3.423056l-28.266361,0z"/>
  <path stroke="null" id="svg_10" fill="#c40404" d="m60.266361,14.826427c0,-1.895735 -1.562342,-3.434363 -3.487371,-3.434363l-17.436855,0c-1.925029,0 -3.487371,1.538628 -3.487371,3.434363c0,0 -0.453358,3.148398 -3.487371,3.432968l27.898967,0l0,-3.432968z"/>
 </g>
</svg>